<svg width="69" height="69" viewBox="0 0 69 69" fill="none" xmlns="http://www.w3.org/2000/svg">
<path d="M35.9375 20.8438C35.9375 20.2719 35.7103 19.7234 35.3059 19.3191C34.9016 18.9147 34.3531 18.6875 33.7812 18.6875C33.2094 18.6875 32.6609 18.9147 32.2566 19.3191C31.8522 19.7234 31.625 20.2719 31.625 20.8438V36.6562C31.625 37.4325 32.039 38.1455 32.7118 38.5279L42.7743 44.2779C43.2696 44.5456 43.85 44.6089 44.3914 44.4543C44.9328 44.2998 45.3923 43.9396 45.6716 43.4507C45.9509 42.9619 46.028 42.3832 45.8863 41.8382C45.7446 41.2933 45.3954 40.8255 44.9132 40.5346L35.9375 35.4056V20.8438Z" fill="#293142"/>
<path fill-rule="evenodd" clip-rule="evenodd" d="M33.1071 37.8324L33.1087 37.8333L43.162 43.5781C43.4719 43.7431 43.8339 43.7815 44.1718 43.6851C44.5123 43.5879 44.8013 43.3613 44.977 43.0538C45.1527 42.7463 45.2012 42.3823 45.112 42.0396C45.0236 41.6995 44.8067 41.4072 44.5072 41.224L35.1375 35.8699V20.8438C35.1375 20.4841 34.9946 20.1391 34.7403 19.8847C34.4859 19.6304 34.1409 19.4875 33.7812 19.4875C33.4216 19.4875 33.0766 19.6304 32.8222 19.8847C32.5679 20.1391 32.425 20.4841 32.425 20.8438V36.6562C32.425 37.1459 32.6854 37.5927 33.1071 37.8324ZM44.9132 40.5346C45.3954 40.8255 45.7446 41.2933 45.8863 41.8382C46.028 42.3832 45.9509 42.9619 45.6716 43.4507C45.3923 43.9396 44.9328 44.2998 44.3914 44.4543C43.85 44.6089 43.2696 44.5456 42.7743 44.2779L32.7118 38.5279C32.039 38.1455 31.625 37.4325 31.625 36.6562V20.8438C31.625 20.2719 31.8522 19.7234 32.2566 19.3191C32.6609 18.9147 33.2094 18.6875 33.7812 18.6875C34.3531 18.6875 34.9016 18.9147 35.3059 19.3191C35.7103 19.7234 35.9375 20.2719 35.9375 20.8438V35.4056L44.9132 40.5346Z" fill="white"/>
<path d="M34.5 2.875C51.9656 2.875 66.125 17.0344 66.125 34.5C66.125 51.9656 51.9656 66.125 34.5 66.125C17.0344 66.125 2.875 51.9656 2.875 34.5C2.875 17.0344 17.0344 2.875 34.5 2.875ZM7.1875 34.5C7.1875 41.7437 10.0651 48.6908 15.1871 53.8129C20.3092 58.9349 27.2563 61.8125 34.5 61.8125C41.7437 61.8125 48.6908 58.9349 53.8129 53.8129C58.9349 48.6908 61.8125 41.7437 61.8125 34.5C61.8125 27.2563 58.9349 20.3092 53.8129 15.1871C48.6908 10.0651 41.7437 7.1875 34.5 7.1875C27.2563 7.1875 20.3092 10.0651 15.1871 15.1871C10.0651 20.3092 7.1875 27.2563 7.1875 34.5Z" fill="#293142"/>
<path fill-rule="evenodd" clip-rule="evenodd" d="M65.325 34.5C65.325 17.4762 51.5238 3.675 34.5 3.675C17.4762 3.675 3.675 17.4762 3.675 34.5C3.675 51.5238 17.4762 65.325 34.5 65.325C51.5238 65.325 65.325 51.5238 65.325 34.5ZM14.6215 54.3785C9.34934 49.1064 6.3875 41.9559 6.3875 34.5C6.3875 27.0441 9.34934 19.8936 14.6215 14.6215C19.8936 9.34934 27.0441 6.3875 34.5 6.3875C41.9559 6.3875 49.1064 9.34934 54.3785 14.6215C59.6507 19.8936 62.6125 27.0441 62.6125 34.5C62.6125 41.9559 59.6507 49.1064 54.3785 54.3785C49.1064 59.6507 41.9559 62.6125 34.5 62.6125C27.0441 62.6125 19.8936 59.6507 14.6215 54.3785ZM66.125 34.5C66.125 17.0344 51.9656 2.875 34.5 2.875C17.0344 2.875 2.875 17.0344 2.875 34.5C2.875 51.9656 17.0344 66.125 34.5 66.125C51.9656 66.125 66.125 51.9656 66.125 34.5ZM15.1871 53.8129C10.0651 48.6908 7.1875 41.7437 7.1875 34.5C7.1875 27.2563 10.0651 20.3092 15.1871 15.1871C20.3092 10.0651 27.2563 7.1875 34.5 7.1875C41.7437 7.1875 48.6908 10.0651 53.8129 15.1871C58.9349 20.3092 61.8125 27.2563 61.8125 34.5C61.8125 41.7437 58.9349 48.6908 53.8129 53.8129C48.6908 58.9349 41.7437 61.8125 34.5 61.8125C27.2563 61.8125 20.3092 58.9349 15.1871 53.8129Z" fill="white"/>
</svg>
