<svg width="22" height="18" viewBox="0 0 22 18" fill="none" xmlns="http://www.w3.org/2000/svg">
<path d="M12.5887 17.2125C12.7262 17.5247 13.1677 17.5365 13.3201 17.2285L21.0907 1.50787C21.1466 1.39679 21.149 1.2658 21.0953 1.15262C21.0238 1.00298 20.8872 0.95764 20.8841 0.952817C20.8271 0.93098 20.7733 0.918666 20.7049 0.923208L1.02263 1.78493C0.640263 1.80187 0.493915 2.2945 0.806301 2.51688L6.16073 6.32826L4.05564 11.2828C4.05483 11.2845 4.05464 11.2865 4.05383 11.2883C3.93311 11.5853 4.19116 11.9014 4.50893 11.8359L9.74457 10.7537L12.5887 17.2125ZM12.979 16.0962C12.8118 15.7163 9.46992 8.12887 9.31265 7.77167L19.8184 2.25973L12.979 16.0962ZM2.23024 2.53933L17.9762 1.85011L6.7233 5.73783L2.23024 2.53933ZM6.9599 6.51035L15.8036 3.45475L8.60416 7.23217C8.60227 7.233 8.6006 7.23423 8.59863 7.23537C8.59239 7.23872 8.58638 7.24247 8.58006 7.24614C8.57445 7.24966 8.56884 7.25318 8.56345 7.25709C8.55855 7.26046 8.55404 7.26361 8.54944 7.26706C8.54279 7.27198 8.53645 7.27697 8.53034 7.28236C8.52859 7.2839 8.52654 7.28536 8.52479 7.2869L5.49428 9.96072L6.9599 6.51035ZM5.83334 10.7374L8.64466 8.25724L9.41131 9.9979L5.83334 10.7374Z" fill="#00B1E6"/>
</svg>
