<svg width="53" height="71" viewBox="0 0 53 71" fill="none" xmlns="http://www.w3.org/2000/svg">
<path d="M27.2134 14.1938C27.1526 14.0615 27.0551 13.9494 26.9325 13.8708C26.8099 13.7923 26.6674 13.7505 26.5218 13.7505C26.3762 13.7505 26.2336 13.7923 26.111 13.8708C25.9884 13.9494 25.891 14.0615 25.8301 14.1938L22.7155 20.9493C22.6608 21.067 22.577 21.1687 22.4719 21.2448C22.3668 21.321 22.2441 21.369 22.1152 21.3843L14.7246 22.263C14.5805 22.2805 14.4443 22.3388 14.3323 22.431C14.2202 22.5233 14.1369 22.6457 14.092 22.7838C14.0472 22.9218 14.0428 23.0699 14.0794 23.2103C14.1159 23.3508 14.1919 23.478 14.2983 23.5767L19.7619 28.6271C19.8579 28.7155 19.9295 28.8272 19.9699 28.9514C20.0103 29.0756 20.018 29.2081 19.9924 29.3361L18.5395 36.6311C18.5111 36.7737 18.5241 36.9215 18.577 37.057C18.6299 37.1925 18.7206 37.31 18.8382 37.3956C18.9558 37.4811 19.0955 37.5312 19.2407 37.5399C19.3859 37.5486 19.5305 37.5155 19.6575 37.4445L26.152 33.8123C26.2651 33.7494 26.3924 33.7164 26.5218 33.7164C26.6512 33.7164 26.7784 33.7494 26.8915 33.8123L33.3861 37.4445C33.9516 37.7621 34.6302 37.2705 34.504 36.6311L33.0555 29.3361C33.0299 29.2081 33.0376 29.0756 33.078 28.9514C33.1184 28.8272 33.19 28.7155 33.286 28.6271L38.7453 23.5767C38.8517 23.478 38.9276 23.3508 38.9642 23.2103C39.0007 23.0699 38.9963 22.9218 38.9515 22.7838C38.9067 22.6457 38.8233 22.5233 38.7113 22.431C38.5992 22.3388 38.4631 22.2805 38.319 22.263L30.9327 21.3843C30.8031 21.3697 30.6794 21.322 30.5735 21.2458C30.4676 21.1696 30.3831 21.0675 30.328 20.9493L27.2134 14.1938ZM52.6 26.8001C52.6041 30.4728 51.831 34.1048 50.3315 37.4576C48.8321 40.8103 46.6403 43.8078 43.9 46.2533V68.1251C43.8999 68.5059 43.7998 68.8801 43.6096 69.2101C43.4195 69.5402 43.146 69.8145 42.8166 70.0056C42.4871 70.1968 42.1133 70.298 41.7324 70.2993C41.3515 70.3006 40.977 70.2019 40.6462 70.013L26.5 61.9307L12.3538 70.013C12.0231 70.2019 11.6486 70.3006 11.2677 70.2993C10.8868 70.298 10.5129 70.1968 10.1835 70.0056C9.85405 69.8145 9.58057 69.5402 9.39043 69.2101C9.20029 68.8801 9.10015 68.5059 9.10003 68.1251V46.2533C5.855 43.3508 3.38756 39.6827 1.9224 35.583C0.457247 31.4833 0.0409186 27.0821 0.711328 22.7804C1.38174 18.4787 3.11759 14.4129 5.76081 10.9535C8.40403 7.49404 11.8707 4.75075 15.845 2.97342C19.8194 1.19608 24.1752 0.441175 28.5159 0.777433C32.8565 1.11369 37.0441 2.53043 40.6974 4.89865C44.3506 7.26687 47.3533 10.5113 49.4322 14.3366C51.5111 18.1618 52.6001 22.4464 52.6 26.8001ZM26.5 52.9001C21.9181 52.9067 17.4159 51.7016 13.45 49.407V64.3797L25.4212 57.5372C25.7498 57.3495 26.1216 57.2508 26.5 57.2508C26.8784 57.2508 27.2503 57.3495 27.5788 57.5372L39.55 64.384V49.4114C35.5838 51.7047 31.0816 52.9083 26.5 52.9001ZM26.5 48.5501C32.2685 48.5501 37.8007 46.2585 41.8796 42.1796C45.9585 38.1007 48.25 32.5685 48.25 26.8001C48.25 21.0316 45.9585 15.4994 41.8796 11.4205C37.8007 7.34157 32.2685 5.05006 26.5 5.05006C20.7316 5.05006 15.1994 7.34157 11.1205 11.4205C7.04154 15.4994 4.75003 21.0316 4.75003 26.8001C4.75003 32.5685 7.04154 38.1007 11.1205 42.1796C15.1994 46.2585 20.7316 48.5501 26.5 48.5501Z" fill="#293142"/>
<path fill-rule="evenodd" clip-rule="evenodd" d="M22.1152 21.3843L14.7246 22.263C14.5805 22.2805 14.4443 22.3388 14.3323 22.431C14.2202 22.5233 14.1369 22.6457 14.092 22.7838C14.0472 22.9218 14.0428 23.0699 14.0794 23.2103C14.1159 23.3508 14.1919 23.478 14.2983 23.5767L19.7619 28.6271C19.8579 28.7155 19.9295 28.8272 19.9699 28.9514C20.0103 29.0756 20.018 29.2081 19.9924 29.3361L18.5395 36.6311C18.5111 36.7737 18.5241 36.9215 18.577 37.057C18.6299 37.1925 18.7206 37.31 18.8382 37.3956C18.9558 37.4811 19.0955 37.5312 19.2407 37.5399C19.3859 37.5486 19.5305 37.5155 19.6575 37.4445L26.152 33.8123C26.2651 33.7494 26.3924 33.7164 26.5218 33.7164C26.6512 33.7164 26.7784 33.7494 26.8915 33.8123L33.3861 37.4445C33.9516 37.7621 34.6302 37.2705 34.504 36.6311L33.0555 29.3361C33.0299 29.2081 33.0376 29.0756 33.078 28.9514C33.1184 28.8272 33.19 28.7155 33.286 28.6271L38.7453 23.5767C38.8517 23.478 38.9276 23.3508 38.9642 23.2103C39.0007 23.0699 38.9963 22.9218 38.9515 22.7838C38.9067 22.6457 38.8233 22.5233 38.7113 22.431C38.5992 22.3388 38.4631 22.2805 38.319 22.263L30.9327 21.3843C30.8031 21.3697 30.6794 21.322 30.5735 21.2458C30.4676 21.1696 30.3831 21.0675 30.328 20.9493L27.2134 14.1938C27.1526 14.0615 27.0551 13.9494 26.9325 13.8708C26.8099 13.7923 26.6674 13.7505 26.5218 13.7505C26.3762 13.7505 26.2336 13.7923 26.111 13.8708C25.9884 13.9494 25.891 14.0615 25.8301 14.1938L22.7155 20.9493C22.6608 21.067 22.577 21.1687 22.4719 21.2448C22.3668 21.321 22.2441 21.369 22.1152 21.3843ZM51.6 26.8L51.6 26.8012C51.6039 30.3328 50.8605 33.8254 49.4187 37.0493C47.9768 40.2732 45.8692 43.1557 43.2342 45.5072L42.9 45.8054V68.1251C42.8999 68.3307 42.8458 68.5327 42.7431 68.7109C42.6404 68.8892 42.4927 69.0374 42.3147 69.1407C42.1367 69.2439 41.9348 69.2986 41.729 69.2993C41.5233 69.3 41.3209 69.2467 41.1422 69.1446L26.5 60.7789L11.8577 69.1447C11.6791 69.2467 11.4768 69.3 11.2711 69.2993C11.0653 69.2986 10.8633 69.2439 10.6853 69.1407C10.5074 69.0374 10.3596 68.8892 10.2569 68.7109C10.1543 68.5327 10.1002 68.3304 10.1 68.1247L10.1 45.806L9.7667 45.5079C6.64599 42.7167 4.27309 39.1891 2.86407 35.2465C1.45505 31.3038 1.05468 27.0713 1.6994 22.9344C2.34412 18.7975 4.01346 14.8875 6.55542 11.5606C9.09737 8.23371 12.4312 5.59553 16.2533 3.88629C20.0753 2.17706 24.2643 1.45107 28.4386 1.77445C32.613 2.09782 36.6402 3.46028 40.1534 5.73776C43.6666 8.01524 46.5544 11.1354 48.5536 14.8141C50.5529 18.4928 51.6001 22.6132 51.6 26.8ZM43.6096 69.2101C43.7998 68.8801 43.8999 68.5059 43.9 68.1251V46.2533C46.6403 43.8078 48.8321 40.8103 50.3315 37.4576C51.831 34.1048 52.6041 30.4728 52.6 26.8001C52.6001 22.4464 51.5111 18.1618 49.4322 14.3366C47.3533 10.5113 44.3506 7.26687 40.6974 4.89865C37.0441 2.53043 32.8565 1.11369 28.5159 0.777433C24.1752 0.441175 19.8194 1.19608 15.845 2.97342C11.8707 4.75075 8.40403 7.49404 5.76081 10.9535C3.11759 14.4129 1.38174 18.4787 0.711328 22.7804C0.0409186 27.0821 0.457247 31.4833 1.9224 35.583C3.38756 39.6827 5.855 43.3508 9.10003 46.2533V68.1251C9.10015 68.5059 9.20029 68.8801 9.39043 69.2101C9.58057 69.5402 9.85405 69.8145 10.1835 70.0056C10.5129 70.1968 10.8868 70.298 11.2677 70.2993C11.6486 70.3006 12.0231 70.2019 12.3538 70.013L26.5 61.9307L40.6462 70.013C40.977 70.2019 41.3515 70.3006 41.7324 70.2993C42.1133 70.298 42.4871 70.1968 42.8166 70.0056C43.146 69.8145 43.4195 69.5402 43.6096 69.2101ZM26.5018 51.9L26.4986 51.9001C22.093 51.9065 17.7641 50.7478 13.9508 48.5414L12.45 47.6731V66.1031L25.9172 58.4055C26.0947 58.3041 26.2956 58.2508 26.5 58.2508C26.7044 58.2508 26.9053 58.3041 27.0828 58.4055L40.55 66.108V47.678L39.0495 48.5456C35.2359 50.7507 30.907 51.9079 26.5018 51.9ZM26.5 57.2508C26.1216 57.2508 25.7498 57.3495 25.4212 57.5372L13.45 64.3797V49.407C13.7797 49.5978 14.1132 49.781 14.45 49.9566C18.1651 51.8936 22.2991 52.9062 26.5 52.9001C30.7007 52.9076 34.8347 51.8964 38.55 49.9606C38.8869 49.7851 39.2203 49.602 39.55 49.4114V64.384L27.5788 57.5372C27.2503 57.3495 26.8784 57.2508 26.5 57.2508ZM26.5 49.5501C32.5337 49.5501 38.3203 47.1532 42.5867 42.8867C46.8532 38.6203 49.25 32.8337 49.25 26.8001C49.25 20.7664 46.8532 14.9798 42.5867 10.7134C38.3203 6.44693 32.5337 4.05006 26.5 4.05006C20.4664 4.05006 14.6798 6.44693 10.4134 10.7134C6.1469 14.9798 3.75003 20.7664 3.75003 26.8001C3.75003 32.8337 6.1469 38.6203 10.4134 42.8867C14.6798 47.1532 20.4664 49.5501 26.5 49.5501ZM26.5 48.5501C32.2685 48.5501 37.8007 46.2585 41.8796 42.1796C45.9585 38.1007 48.25 32.5685 48.25 26.8001C48.25 21.0316 45.9585 15.4994 41.8796 11.4205C37.8007 7.34157 32.2685 5.05006 26.5 5.05006C20.7316 5.05006 15.1994 7.34157 11.1205 11.4205C7.04154 15.4994 4.75003 21.0316 4.75003 26.8001C4.75003 32.5685 7.04154 38.1007 11.1205 42.1796C15.1994 46.2585 20.7316 48.5501 26.5 48.5501ZM15.3582 23.1947L20.4396 27.8917C20.5 28 21.2069 28.358 20.973 29.5322L19.6213 36.319L25.6663 32.9381C25.928 32.7927 26.2224 32.7164 26.5218 32.7164C26.8212 32.7164 27.1156 32.7927 27.3772 32.9381L27.3797 32.9395L33.4226 36.3191L32.0749 29.5322C32.0157 29.236 32.0336 28.9295 32.127 28.6422C32.2202 28.3555 32.3855 28.0975 32.6069 27.893L32.6083 27.8917L37.6856 23.1947L30.8205 22.378L30.8169 22.3776C30.5183 22.3433 30.2335 22.2331 29.9895 22.0576C29.7446 21.8813 29.549 21.6451 29.4216 21.3716L29.4199 21.368L26.5218 15.082L23.6223 21.3709C23.4958 21.6431 23.3018 21.8784 23.0587 22.0546C22.8395 22.2514 22.2616 22.3702 22 22.4051L15.3582 23.1947Z" fill="white"/>
</svg>
