<svg width="21" height="22" viewBox="0 0 21 22" fill="none" xmlns="http://www.w3.org/2000/svg">
<path d="M1.78097 22C1.00049 22 0.520852 21.1458 0.92717 20.4794L6.51512 11.3149C6.70961 10.996 6.71008 10.5952 6.51634 10.2758L1.20503 1.51858C0.800835 0.852151 1.28063 0 2.06006 0H6.02098C6.37648 0 6.70526 0.188738 6.88452 0.49573L9.73662 5.37984C10.1195 6.0356 11.0649 6.04206 11.4567 5.39159L14.4132 0.483983C14.5941 0.183641 14.9191 0 15.2698 0H19.0679C19.8503 0 20.3297 0.858058 19.9194 1.52432L14.4755 10.3654C14.2775 10.6871 14.2776 11.0929 14.4757 11.4144L20.0603 20.4753C20.4709 21.1416 19.9916 22 19.209 22H15.2132C14.859 22 14.5313 21.8127 14.3516 21.5075L11.2372 16.2195C10.8483 15.5591 9.8915 15.5637 9.509 16.2279L6.47332 21.4991C6.29483 21.809 5.9644 22 5.60675 22H1.78097Z" fill="#00B1E6"/>
</svg>
