<svg width="20" height="21" viewBox="0 0 20 21" fill="none" xmlns="http://www.w3.org/2000/svg">
<path d="M9.89996 7.88901C10.9666 7.9408 11.2416 8.88161 11.2583 9.3218H12.75C12.6833 7.61281 11.5083 6.56844 9.87496 6.56844C8.03329 6.56844 6.66663 7.76818 6.66663 10.4784C6.66663 12.1528 7.44163 14.138 9.86663 14.138C11.7166 14.138 12.7083 12.7139 12.7333 11.5918H11.2416C11.2166 12.1011 10.8666 12.7829 9.88329 12.8347C8.79163 12.8002 8.33329 11.9198 8.33329 10.4784C8.33329 7.98396 9.39996 7.90628 9.89996 7.88901ZM9.99996 1.72632C5.39996 1.72632 1.66663 5.59311 1.66663 10.3575C1.66663 15.122 5.39996 18.9888 9.99996 18.9888C14.6 18.9888 18.3333 15.122 18.3333 10.3575C18.3333 5.59311 14.6 1.72632 9.99996 1.72632ZM9.99996 17.2625C6.32496 17.2625 3.33329 14.1639 3.33329 10.3575C3.33329 6.55117 6.32496 3.45256 9.99996 3.45256C13.675 3.45256 16.6666 6.55117 16.6666 10.3575C16.6666 14.1639 13.675 17.2625 9.99996 17.2625Z" fill="white"/>
</svg>
