<svg width="9" height="22" viewBox="0 0 9 22" fill="none" xmlns="http://www.w3.org/2000/svg">
<path d="M8.65616 0C8.65616 1.22413 8.65616 2.38997 8.708 3.6141C8.44883 3.6141 8.18966 3.6141 7.98233 3.6141C7.51583 3.6141 7.10116 3.6141 6.63466 3.6141C6.11633 3.6141 5.80533 3.90556 5.80533 4.48848C5.80533 5.30457 5.80533 6.06236 5.80533 6.87845C6.79016 6.87845 7.775 6.87845 8.81166 6.87845C8.708 8.16087 8.60433 9.385 8.50066 10.6674C7.6195 10.6674 6.73833 10.6674 5.85716 10.6674C5.909 14.2232 5.909 17.779 5.96083 21.3348C4.665 21.3348 3.31733 21.3348 2.0215 21.3931C1.96967 17.8373 1.96967 14.3398 1.91783 10.784C1.29583 10.784 0.673832 10.784 0.0518325 10.784C0.0518325 9.50158 0.0518333 8.27745 0 6.99503C0.622 6.99503 1.244 6.99503 1.866 6.99503C1.866 6.87845 1.866 6.76186 1.866 6.70357C1.866 5.82919 1.81417 4.95481 1.866 4.08043C1.96967 2.68143 2.43617 1.4573 3.5765 0.699502C4.14667 0.291459 4.8205 0.116583 5.49433 0.116583C6.531 0.0582913 7.56766 0.116583 8.60433 0.058291C8.60433 -8.84135e-07 8.60433 0 8.65616 0Z" fill="white"/>
</svg>
