<svg width="23" height="14" viewBox="0 0 23 14" fill="none" xmlns="http://www.w3.org/2000/svg">
<path d="M12.1561 12.9125L21.7805 2.46312C21.9412 2.28877 22.0308 2.05713 22.0308 1.81625C22.0308 1.57536 21.9412 1.34372 21.7805 1.16937L21.7696 1.15812C21.6917 1.07331 21.598 1.00577 21.4941 0.959618C21.3901 0.913466 21.2782 0.889667 21.1652 0.889667C21.0521 0.889667 20.9402 0.913466 20.8362 0.959618C20.7323 1.00577 20.6386 1.07331 20.5607 1.15812L11.4982 10.9981L2.43931 1.15812C2.36142 1.0733 2.26766 1.00577 2.16375 0.959616C2.05983 0.913465 1.94792 0.889666 1.83484 0.889666C1.72175 0.889666 1.60984 0.913465 1.50593 0.959616C1.40201 1.00577 1.30826 1.0733 1.23037 1.15812L1.21949 1.16937C1.05882 1.34372 0.969194 1.57536 0.969194 1.81624C0.969193 2.05713 1.05882 2.28877 1.21949 2.46312L10.8439 12.9125C10.9285 13.0044 11.0303 13.0776 11.1431 13.1275C11.2559 13.1775 11.3773 13.2033 11.5 13.2033C11.6227 13.2033 11.7441 13.1775 11.8569 13.1275C11.9697 13.0776 12.0715 13.0044 12.1561 12.9125Z" fill="#7C7D7E"/>
</svg>
