<svg width="32" height="26" viewBox="0 0 32 26" fill="none" xmlns="http://www.w3.org/2000/svg">
<path d="M31.6896 3.75004C30.5346 4.26046 29.2896 4.59587 27.9996 4.75629C29.3196 3.98337 30.3396 2.75837 30.8196 1.28546C29.5746 2.01462 28.1946 2.52504 26.7396 2.81671C25.5546 1.56254 23.8896 0.833374 21.9996 0.833374C18.4746 0.833374 15.5946 3.63337 15.5946 7.08962C15.5946 7.58546 15.6546 8.06671 15.7596 8.51879C10.4196 8.25629 5.66457 5.76254 2.49957 1.98546C1.94457 2.90421 1.62957 3.98337 1.62957 5.12087C1.62957 7.29379 2.75457 9.21879 4.49457 10.3125C3.42957 10.3125 2.43957 10.0209 1.56957 9.58337V9.62712C1.56957 12.6605 3.78957 15.198 6.72957 15.7667C5.78566 16.0178 4.79471 16.0528 3.83457 15.8688C4.24198 17.112 5.03988 18.1998 6.1161 18.9793C7.19231 19.7588 8.49274 20.1908 9.83457 20.2146C7.56002 21.9653 4.74056 22.9115 1.83957 22.898C1.32957 22.898 0.81957 22.8688 0.30957 22.8105C3.15957 24.5896 6.54957 25.625 10.1796 25.625C21.9996 25.625 28.4946 16.0875 28.4946 7.81879C28.4946 7.54171 28.4946 7.27921 28.4796 7.00212C29.7396 6.12712 30.8196 5.01879 31.6896 3.75004Z" fill="#00B1E6"/>
</svg>
