<svg width="29" height="29" viewBox="0 0 29 29" fill="none" xmlns="http://www.w3.org/2000/svg">
<path d="M14.502 0.75C22.0961 0.75 28.252 6.90588 28.252 14.5C28.252 22.0941 22.0961 28.25 14.502 28.25C12.072 28.2539 9.68488 27.6109 7.58572 26.3869L0.757472 28.25L2.61647 21.419C1.39148 19.3192 0.747913 16.931 0.751972 14.5C0.751972 6.90588 6.90785 0.75 14.502 0.75ZM9.81597 8.0375L9.54097 8.0485C9.36294 8.05934 9.18894 8.10611 9.02947 8.186C8.88031 8.27047 8.74415 8.37606 8.62522 8.4995C8.46022 8.65488 8.36672 8.78963 8.26635 8.92025C7.75776 9.58149 7.48393 10.3933 7.4881 11.2275C7.49085 11.9012 7.66685 12.5571 7.94185 13.1704C8.50422 14.4106 9.4296 15.7237 10.6506 16.9406C10.9448 17.2335 11.2336 17.5278 11.5443 17.8014C13.0615 19.1371 14.8694 20.1004 16.8243 20.6146L17.6053 20.7343C17.8597 20.748 18.1141 20.7288 18.3698 20.7164C18.7703 20.6957 19.1613 20.5873 19.5152 20.3988C19.6953 20.306 19.871 20.2051 20.0418 20.0962C20.0418 20.0962 20.101 20.0577 20.2137 19.9725C20.3993 19.835 20.5135 19.7374 20.6675 19.5765C20.7816 19.4583 20.8806 19.3194 20.9562 19.1613C21.0635 18.9371 21.1707 18.5095 21.2147 18.1534C21.2477 17.8811 21.2381 17.7326 21.234 17.6405C21.2285 17.4934 21.1061 17.3407 20.9727 17.2761L20.1725 16.9172C20.1725 16.9172 18.9762 16.3961 18.2447 16.0634C18.1682 16.03 18.0862 16.0108 18.0027 16.007C17.9086 15.9973 17.8136 16.0079 17.7239 16.038C17.6343 16.0682 17.5521 16.1171 17.483 16.1816C17.4761 16.1789 17.384 16.2573 16.3898 17.4618C16.3328 17.5384 16.2542 17.5964 16.1641 17.6282C16.074 17.66 15.9764 17.6643 15.8838 17.6405C15.7943 17.6165 15.7065 17.5862 15.6212 17.5498C15.4507 17.4783 15.3916 17.4508 15.2747 17.4012C14.4856 17.0569 13.7549 16.5916 13.1091 16.0221C12.9358 15.8709 12.775 15.7059 12.61 15.5464C12.069 15.0283 11.5976 14.4423 11.2075 13.8029L11.1263 13.6722C11.0681 13.5845 11.021 13.4898 10.9861 13.3904C10.9338 13.1882 11.07 13.026 11.07 13.026C11.07 13.026 11.4041 12.6602 11.5595 12.4622C11.7107 12.2697 11.8386 12.0828 11.9211 11.9494C12.0833 11.6881 12.1342 11.42 12.049 11.2124C11.664 10.2719 11.2652 9.3355 10.8555 8.406C10.7743 8.22175 10.5337 8.08975 10.3151 8.06362C10.2408 8.05537 10.1666 8.04712 10.0923 8.04163C9.90769 8.03245 9.72266 8.03429 9.53822 8.04713L9.8146 8.03612L9.81597 8.0375Z" fill="#00B1E6"/>
</svg>
