<svg width="389" height="400" viewBox="0 0 389 400" fill="none" xmlns="http://www.w3.org/2000/svg">
<g opacity="0.1">
<path d="M176.553 99.7019V163.721C176.553 173.882 168.301 182.135 158.14 182.087H99.4633C94.359 182.087 89.5409 179.988 86.0584 176.267L4.96124 97.3166C1.81276 93.9296 0 89.4455 0 84.8181V18.4138C0 8.20513 8.25283 0 18.4138 0H76.0883C81.288 0 86.2493 2.2421 89.684 6.10614L172.021 87.4896C175.075 90.8766 176.553 95.17 176.553 99.7019Z" fill="#00B1E6"/>
<path d="M212.236 99.7019V163.721C212.236 173.882 220.489 182.135 230.65 182.087H289.326C294.43 182.087 299.248 179.988 302.731 176.267L383.828 97.3166C387.024 93.9296 388.789 89.4455 388.789 84.7704V18.4138C388.789 8.20513 380.536 0 370.375 0H312.701C307.501 0 302.54 2.2421 299.105 6.10614L216.768 87.4896C213.715 90.8766 212.236 95.17 212.236 99.7019Z" fill="#005493"/>
<path d="M212.236 300.25V236.231C212.236 226.07 220.489 217.817 230.65 217.865H289.326C294.43 217.865 299.248 219.964 302.731 223.685L383.828 302.636C387.024 306.023 388.789 310.507 388.789 315.182V381.586C388.789 391.747 380.536 400 370.375 400H312.701C307.501 400 302.54 397.758 299.105 393.894L216.768 312.51C213.715 309.123 212.236 304.83 212.236 300.298V300.25Z" fill="#005493"/>
<path d="M176.553 300.25V236.231C176.553 226.07 168.301 217.817 158.14 217.865H99.4633C94.359 217.865 89.5409 219.964 86.0584 223.685L4.96124 302.588C1.81276 306.023 0 310.507 0 315.134V381.538C0 391.699 8.25283 399.952 18.4138 399.952H76.0883C81.288 399.952 86.2493 397.71 89.684 393.846L172.021 312.463C175.075 309.076 176.553 304.782 176.553 300.25Z" fill="#00B1E6"/>
</g>
</svg>
