<svg width="11" height="27" viewBox="0 0 11 27" fill="none" xmlns="http://www.w3.org/2000/svg">
<path d="M10.5876 0.800049C10.5876 2.26901 10.5876 3.66801 10.6498 5.13697C10.3388 5.13697 10.0278 5.13697 9.77899 5.13697C9.21919 5.13697 8.72159 5.13697 8.16179 5.13697C7.53979 5.13697 7.16659 5.48672 7.16659 6.18622C7.16659 7.16553 7.16659 8.07488 7.16659 9.05418C8.34839 9.05418 9.53019 9.05418 10.7742 9.05418C10.6498 10.5931 10.5254 12.062 10.401 13.601C9.34359 13.601 8.28619 13.601 7.22879 13.601C7.29099 17.8679 7.29099 22.1349 7.35319 26.4019C5.79819 26.4019 4.18099 26.4019 2.626 26.4718C2.5638 22.2048 2.56379 18.0078 2.50159 13.7409C1.7552 13.7409 1.00879 13.7409 0.262394 13.7409C0.262394 12.2019 0.262395 10.733 0.200195 9.19409C0.946595 9.19409 1.69299 9.19409 2.43939 9.19409C2.43939 9.05419 2.43939 8.91428 2.43939 8.84433C2.43939 7.79508 2.37719 6.74583 2.43939 5.69657C2.56379 4.01776 3.1236 2.54881 4.49199 1.63945C5.17619 1.1498 5.98479 0.939949 6.79339 0.939949C8.03739 0.869998 9.28139 0.939948 10.5254 0.869998C10.5254 0.800048 10.5254 0.800049 10.5876 0.800049Z" fill="#00B1E6"/>
</svg>
