<svg width="24" height="24" viewBox="0 0 24 24" fill="none" xmlns="http://www.w3.org/2000/svg">
<path d="M7.03012 0.0839254C5.75332 0.144166 4.8814 0.347926 4.11915 0.647447C3.33027 0.954888 2.66163 1.36745 1.99635 2.03513C1.33106 2.70281 0.921382 3.37194 0.616101 4.16202C0.32066 4.92594 0.1205 5.79859 0.0640997 7.07611C0.00769949 8.35363 -0.00478056 8.76428 0.00145946 12.023C0.00769948 15.2817 0.0220995 15.6902 0.0840197 16.9704C0.14498 18.2469 0.348021 19.1186 0.647542 19.8811C0.955463 20.67 1.36754 21.3384 2.03547 22.0039C2.70339 22.6694 3.37203 23.0782 4.16403 23.3839C4.92724 23.6789 5.80012 23.88 7.0774 23.9359C8.35469 23.9918 8.76581 24.0048 12.0236 23.9986C15.2814 23.9923 15.6915 23.9779 16.9714 23.9172C18.2514 23.8565 19.1185 23.652 19.8812 23.3539C20.6701 23.0453 21.339 22.6339 22.004 21.9658C22.6691 21.2976 23.0785 20.628 23.3835 19.8374C23.6792 19.0742 23.8801 18.2013 23.9355 16.925C23.9915 15.6441 24.0047 15.2352 23.9984 11.9769C23.9922 8.71868 23.9775 8.31019 23.9168 7.03051C23.8561 5.75083 23.6528 4.88178 23.3535 4.11882C23.0451 3.32994 22.6335 2.66201 21.9659 1.99601C21.2982 1.33001 20.6281 0.920808 19.8378 0.616487C19.0741 0.321046 18.2017 0.119686 16.9244 0.0644854C15.6471 0.00928517 15.236 -0.00487488 11.977 0.00136514C8.71805 0.00760516 8.31005 0.0215252 7.03012 0.0839254ZM7.17028 21.7771C6.00028 21.7262 5.365 21.5318 4.94164 21.3691C4.38099 21.1531 3.98163 20.892 3.55971 20.4742C3.13779 20.0563 2.87859 19.6555 2.65971 19.0961C2.49531 18.6727 2.29731 18.0381 2.24259 16.8681C2.18307 15.6036 2.17059 15.2239 2.16363 12.0201C2.15667 8.81636 2.16891 8.43715 2.22435 7.17211C2.27427 6.00307 2.46987 5.36706 2.63235 4.94394C2.84835 4.38258 3.10851 3.98394 3.52731 3.56226C3.94611 3.14058 4.34571 2.8809 4.90564 2.66201C5.32852 2.49689 5.96308 2.30057 7.1326 2.24489C8.39813 2.18489 8.77733 2.17289 11.9806 2.16593C15.1839 2.15897 15.5641 2.17097 16.8301 2.22665C17.9991 2.27753 18.6354 2.47121 19.058 2.63465C19.6189 2.85066 20.018 3.1101 20.4397 3.52962C20.8614 3.94914 21.1213 4.3473 21.3402 4.90842C21.5055 5.3301 21.7018 5.96443 21.757 7.13467C21.8173 8.40019 21.831 8.77964 21.8367 11.9827C21.8425 15.1857 21.8312 15.5661 21.7758 16.8307C21.7247 18.0007 21.5307 18.6362 21.3678 19.0601C21.1518 19.6205 20.8914 20.0201 20.4723 20.4415C20.0533 20.863 19.6542 21.1226 19.094 21.3415C18.6716 21.5064 18.0363 21.7032 16.8678 21.7589C15.6022 21.8184 15.223 21.8309 12.0185 21.8378C8.81405 21.8448 8.43605 21.8318 7.17052 21.7771M16.953 5.58642C16.9534 5.87125 17.0384 6.14954 17.197 6.38609C17.3557 6.62265 17.5809 6.80684 17.8442 6.91538C18.1076 7.02391 18.3972 7.05192 18.6764 6.99585C18.9557 6.93978 19.212 6.80216 19.4131 6.60039C19.6141 6.39862 19.7508 6.14176 19.8058 5.8623C19.8609 5.58285 19.8318 5.29334 19.7223 5.03041C19.6128 4.76747 19.4278 4.54292 19.1906 4.38514C18.9535 4.22736 18.6749 4.14345 18.3901 4.14402C18.0082 4.14478 17.6424 4.29716 17.3729 4.56765C17.1034 4.83814 16.9523 5.20459 16.953 5.58642ZM5.83852 12.012C5.84524 15.4152 8.60909 18.1677 12.0116 18.1613C15.4141 18.1548 18.1686 15.3912 18.1621 11.988C18.1556 8.58476 15.391 5.83147 11.9881 5.83819C8.58509 5.84491 5.83204 8.60924 5.83852 12.012ZM7.99997 12.0076C7.9984 11.2165 8.23147 10.4427 8.66971 9.78399C9.10794 9.12531 9.73165 8.61137 10.462 8.30717C11.1923 8.00296 11.9964 7.92216 12.7727 8.07496C13.5489 8.22777 14.2624 8.60733 14.8229 9.16565C15.3835 9.72396 15.7658 10.436 15.9217 11.2116C16.0776 11.9872 16 12.7917 15.6987 13.5232C15.3974 14.2547 14.8859 14.8804 14.229 15.3213C13.572 15.7621 12.7991 15.9983 12.008 15.9998C11.4827 16.0009 10.9623 15.8985 10.4765 15.6985C9.99079 15.4985 9.54921 15.2047 9.17702 14.834C8.80483 14.4632 8.50932 14.0228 8.30736 13.5379C8.10539 13.0529 8.00094 12.533 7.99997 12.0076Z" fill="white"/>
</svg>
