<svg width="177" height="24" viewBox="0 0 177 24" fill="none" xmlns="http://www.w3.org/2000/svg">
<path d="M70.9417 5.98401V9.82774C70.9417 10.4382 70.4446 10.9317 69.8359 10.9317H66.3157C66.0105 10.9317 65.7199 10.8037 65.5115 10.5808L60.6461 5.84145C60.456 5.63674 60.3481 5.36806 60.3481 5.09025V1.10396C60.3481 0.493494 60.8416 -0.00182269 61.4521 5.04209e-06H64.912C65.2245 5.04209e-06 65.5206 0.13343 65.729 0.365552L70.6694 5.24926C70.8521 5.45214 70.9417 5.71168 70.9417 5.98401Z" fill="#00B1E6"/>
<path d="M73.082 5.98401V9.82774C73.082 10.4382 73.5792 10.9317 74.1878 10.9317H77.708C78.0133 10.9317 78.3039 10.8037 78.5122 10.5808L83.3777 5.84145C83.5677 5.63674 83.6756 5.36806 83.6756 5.09025V1.10396C83.6756 0.493494 83.1821 -0.00182269 82.5716 5.04209e-06H79.1117C78.7992 5.04209e-06 78.5031 0.13343 78.2947 0.365552L73.3544 5.24926C73.1716 5.45214 73.082 5.71168 73.082 5.98401Z" fill="#005493"/>
<path d="M73.082 18.0177V14.174C73.082 13.5636 73.5792 13.0701 74.1878 13.0701H77.708C78.0133 13.0701 78.3039 13.198 78.5122 13.421L83.3777 18.1603C83.5677 18.365 83.6756 18.6337 83.6756 18.9115V22.896C83.6756 23.5064 83.1821 24.0018 82.5716 23.9999H79.1117C78.7992 23.9999 78.5031 23.8665 78.2947 23.6344L73.3544 18.7507C73.1716 18.5478 73.082 18.2883 73.082 18.0159V18.0177Z" fill="#005493"/>
<path d="M70.9417 18.0177V14.174C70.9417 13.5636 70.4446 13.0701 69.8359 13.0701H66.3157C66.0105 13.0701 65.7199 13.198 65.5115 13.421L60.6461 18.1603C60.456 18.365 60.3481 18.6337 60.3481 18.9115V22.896C60.3481 23.5064 60.8416 24.0018 61.4521 23.9999H64.912C65.2245 23.9999 65.5206 23.8665 65.729 23.6344L70.6694 18.7507C70.8521 18.5478 70.9417 18.2883 70.9417 18.0159V18.0177Z" fill="#00B1E6"/>
<path d="M141.52 14.9838C141.52 14.5871 141.65 14.3038 141.911 14.1339C142.172 13.9639 142.425 13.878 142.669 13.878H143.998C144.667 13.878 145.177 14.207 145.526 14.865C145.875 15.5229 146.661 15.8519 147.88 15.8519L151.786 15.9232C153.095 15.9232 153.751 15.5376 153.751 14.7644C153.751 14.1814 152.95 13.7208 151.351 13.3845C150.637 13.231 149.849 13.0774 148.986 12.9257C148.123 12.774 147.264 12.5858 146.414 12.3573C145.563 12.1288 144.779 11.8602 144.066 11.5513C143.351 11.2424 142.774 10.8184 142.329 10.2773C141.887 9.73633 141.666 9.10028 141.666 8.36919C141.666 7.02032 142.198 5.98034 143.262 5.2529C144.325 4.52363 146.155 4.15991 148.752 4.15991L151.587 4.22023C153.113 4.22023 154.488 4.57481 155.71 5.28214C156.935 5.9913 157.547 6.87593 157.547 7.93601C157.547 8.33263 157.417 8.61776 157.156 8.79139C156.897 8.96686 156.646 9.05276 156.409 9.05276H155.082C154.411 9.05276 153.903 8.72194 153.554 8.0603C153.204 7.39866 152.419 7.06784 151.199 7.06784L147.84 7.00752C146.531 7.00752 145.875 7.39318 145.875 8.16631C145.875 8.58851 146.29 8.93578 147.12 9.20263C147.95 9.47131 148.953 9.70709 150.132 9.91179C151.311 10.1165 152.495 10.3632 153.687 10.652C154.877 10.9408 155.888 11.416 156.717 12.0777C157.547 12.7393 157.962 13.5636 157.962 14.5506C157.962 15.8995 157.428 16.9394 156.361 17.6669C155.294 18.3961 153.464 18.7599 150.876 18.7599L147.495 18.6995C145.97 18.6995 144.594 18.345 143.366 17.6376C142.138 16.9303 141.523 16.0457 141.523 14.9838H141.52Z" fill="#293142"/>
<path d="M159.638 14.9838C159.638 14.5871 159.768 14.3038 160.029 14.1339C160.289 13.9621 160.543 13.878 160.788 13.878H162.116C162.785 13.878 163.295 14.207 163.644 14.865C163.994 15.5229 164.779 15.8519 165.999 15.8519L169.904 15.9232C171.213 15.9232 171.869 15.5376 171.869 14.7644C171.869 14.1814 171.069 13.7208 169.469 13.3845C168.755 13.231 167.967 13.0774 167.104 12.9257C166.242 12.774 165.383 12.5858 164.533 12.3573C163.681 12.1288 162.897 11.8602 162.184 11.5513C161.469 11.2424 160.892 10.8184 160.448 10.2773C160.005 9.73633 159.784 9.10028 159.784 8.36919C159.784 7.02032 160.316 5.98034 161.38 5.2529C162.444 4.52363 164.273 4.15991 166.87 4.15991L169.705 4.22023C171.231 4.22023 172.606 4.57481 173.829 5.28214C175.053 5.9913 175.665 6.87593 175.665 7.93601C175.665 8.33263 175.536 8.61776 175.274 8.79139C175.015 8.96686 174.764 9.05276 174.527 9.05276H173.2C172.529 9.05276 172.021 8.72194 171.672 8.0603C171.323 7.39866 170.537 7.06784 169.318 7.06784L165.958 7.00752C164.65 7.00752 163.994 7.39318 163.994 8.16631C163.994 8.58851 164.408 8.93578 165.238 9.20263C166.068 9.47131 167.071 9.70709 168.25 9.91179C169.429 10.1165 170.614 10.3632 171.805 10.652C172.995 10.9408 174.006 11.416 174.836 12.0777C175.665 12.7393 176.08 13.5636 176.08 14.5506C176.08 15.8995 175.547 16.9394 174.479 17.6669C173.412 18.3961 171.582 18.7599 168.994 18.7599L165.613 18.6995C164.089 18.6995 162.712 18.345 161.484 17.6376C160.256 16.9303 159.642 16.0457 159.642 14.9838H159.638Z" fill="#293142"/>
<path d="M55.8373 5.98584C54.3679 4.82157 52.0192 4.23853 48.7914 4.23853H42.5534C42.2646 4.23853 42.0124 4.3354 41.804 4.52C41.5956 4.71008 41.4915 4.93855 41.4915 5.21819V18.0105C41.4915 18.3797 41.793 18.6813 42.1622 18.6795H48.7896C52.0174 18.6795 54.366 18.1001 55.8355 16.9395C57.305 15.7788 58.0398 13.9529 58.0398 11.4654C58.0398 8.97784 57.305 7.15011 55.8355 5.98401L55.8373 5.98584ZM52.754 14.843C52.0302 15.4992 50.6685 15.83 48.669 15.83H45.7007V7.08796H48.669C50.6685 7.08796 52.0302 7.41878 52.754 8.08225C53.4741 8.74206 53.8342 9.87161 53.8342 11.4672C53.8342 13.0628 53.4741 14.1869 52.754 14.843Z" fill="#293142"/>
<path d="M37.9675 7.0533C38.2581 7.0533 38.5048 6.96191 38.7096 6.77548C38.9143 6.59088 39.0166 6.3679 39.0166 6.10653V5.15976C39.0166 4.8984 38.9143 4.67359 38.7096 4.48533C38.5048 4.29707 38.2581 4.20386 37.9675 4.20386H25.0948C24.8041 4.20386 24.5556 4.29342 24.3472 4.47619C24.1388 4.65714 24.0347 4.88012 24.0347 5.14149V17.9795C24.0347 18.3487 24.3326 18.6503 24.7036 18.6484H37.9108C38.2014 18.6484 38.45 18.5571 38.6584 18.3725C38.8667 18.1879 38.9709 17.9649 38.9709 17.7035V16.7366C38.9709 16.4753 38.8704 16.2523 38.6693 16.0713C38.4683 15.8904 38.227 15.799 37.9437 15.799H28.2421V12.8271H36.615C36.9056 12.8271 37.1523 12.7357 37.357 12.5511C37.5617 12.3665 37.6641 12.1435 37.6641 11.8803V10.9336C37.6641 10.6722 37.5617 10.4492 37.357 10.2646C37.1523 10.08 36.9056 9.98681 36.615 9.98681H28.2421V7.05512H37.9657L37.9675 7.0533Z" fill="#293142"/>
<path d="M20.1453 4.52C19.9479 4.33174 19.7048 4.23853 19.4142 4.23853H14.8705C14.5798 4.23853 14.3039 4.33174 14.0443 4.52C13.783 4.70825 13.6093 4.93306 13.5198 5.19443L10.2262 13.7976L6.9326 5.19443C6.84304 4.93306 6.66941 4.70825 6.40804 4.52C6.1485 4.33174 5.87251 4.23853 5.5819 4.23853H1.03815C0.747544 4.23853 0.502627 4.33174 0.301576 4.52C0.100525 4.70825 0 4.94038 0 5.21636V18.016C0 18.3852 0.299749 18.6868 0.670779 18.6849H3.0706C3.3612 18.6849 3.60795 18.5936 3.81266 18.409C4.01736 18.2244 4.11972 17.9941 4.11972 17.7181V7.87572L8.04935 17.7784C8.16084 18.027 8.34544 18.2408 8.60132 18.4181C8.85903 18.5954 9.13136 18.6849 9.42197 18.6849H11.0194C11.31 18.6849 11.5842 18.5954 11.8456 18.4181C12.1051 18.2408 12.2879 18.027 12.392 17.7784L16.3326 7.87572V18.016C16.3326 18.3852 16.6324 18.6868 17.0016 18.6849H19.3904C19.6811 18.6849 19.9278 18.5936 20.1325 18.409C20.3372 18.2244 20.4396 17.9941 20.4396 17.7181V5.21636C20.4396 4.94038 20.3409 4.71008 20.1435 4.52182L20.1453 4.52Z" fill="#293142"/>
<path d="M96.8335 4.23853H88.3162C88.0256 4.23853 87.7807 4.33174 87.5797 4.52C87.3786 4.70825 87.2781 4.93306 87.2781 5.19443V17.7382C87.2781 17.9995 87.3823 18.2225 87.5906 18.4071C87.799 18.5917 88.0476 18.6849 88.3382 18.6849H90.8147C91.1858 18.6849 91.4855 18.3852 91.4855 18.016V15.4718H96.8353C101.339 15.4718 103.589 13.6002 103.589 9.85515C103.589 6.11013 101.337 4.23853 96.8353 4.23853H96.8335ZM98.4072 12.0503C97.7601 12.4304 96.8097 12.6187 95.5595 12.6187H91.4855V7.08796H95.5595C96.8097 7.08796 97.7583 7.27805 98.4072 7.65639C99.0542 8.03473 99.3777 8.76765 99.3777 9.85333C99.3777 10.939 99.0542 11.6701 98.4072 12.0503Z" fill="#293142"/>
<path d="M138.924 7.08967C139.215 7.08967 139.462 6.99829 139.666 6.81186C139.871 6.62726 139.973 6.40427 139.973 6.14291V5.19614C139.973 4.93477 139.871 4.70996 139.666 4.52171C139.462 4.33345 139.215 4.24023 138.924 4.24023H126.053C125.763 4.24023 125.514 4.32979 125.306 4.51257C125.097 4.69351 124.993 4.9165 124.993 5.17786V17.718C124.993 17.9939 125.097 18.2242 125.306 18.4088C125.514 18.5934 125.763 18.6867 126.053 18.6867H139.259C139.628 18.6867 139.93 18.3869 139.93 18.0177V16.773C139.93 16.5116 139.829 16.2887 139.628 16.1077C139.427 15.9268 139.186 15.8354 138.902 15.8354H129.201V12.8635H137.574C137.864 12.8635 138.111 12.7721 138.316 12.5875C138.52 12.4029 138.623 12.1799 138.623 11.9167V10.97C138.623 10.7086 138.52 10.4856 138.316 10.301C138.111 10.1164 137.864 10.0232 137.574 10.0232H129.201V7.0915H138.924V7.08967Z" fill="#293142"/>
<path d="M122.462 17.7382L120.431 14.8266C119.94 14.1412 119.505 13.6185 119.125 13.2602C118.744 12.9002 118.331 12.6479 117.885 12.4999C120.691 12.0027 122.095 10.7782 122.095 8.82248C122.095 7.41878 121.55 6.30387 120.459 5.47773C119.369 4.65159 117.971 4.23853 116.268 4.23853H107.058C106.767 4.23853 106.522 4.33174 106.321 4.52C106.12 4.70825 106.02 4.93306 106.02 5.19443V17.7382C106.02 17.9995 106.124 18.2225 106.332 18.4071C106.541 18.5917 106.789 18.6849 107.08 18.6849H109.558C109.927 18.6849 110.229 18.3852 110.229 18.016V13.4064H112.952C114.062 13.4064 115.007 13.9566 115.787 15.0587L117.684 17.7382C117.863 17.9995 118.121 18.2225 118.459 18.4071C118.797 18.5917 119.108 18.6849 119.391 18.6849H121.897C121.897 18.6849 121.899 18.6849 121.901 18.6849C122.272 18.6849 122.572 18.3852 122.572 18.016C122.572 18.016 122.579 17.9228 122.46 17.7382H122.462ZM117.004 10.1403C116.419 10.4163 115.745 10.5534 114.979 10.5534H110.225V7.08979H114.979C115.745 7.08979 116.421 7.22687 117.004 7.50286C117.587 7.77885 117.88 8.2175 117.88 8.82248C117.88 9.42747 117.587 9.86612 117.004 10.1421V10.1403Z" fill="#293142"/>
</svg>
