<svg width="133" height="18" viewBox="0 0 133 18" fill="none" xmlns="http://www.w3.org/2000/svg">
<path d="M53.2063 4.48801V7.37081C53.2063 7.82865 52.8334 8.19877 52.3769 8.19877H49.7368C49.5079 8.19877 49.2899 8.10281 49.1336 7.93558L45.4845 4.38109C45.342 4.22756 45.2611 4.02605 45.2611 3.81769V0.827968C45.2611 0.37012 45.6312 -0.00136702 46.0891 3.78157e-06H48.684C48.9184 3.78157e-06 49.1405 0.100072 49.2968 0.274164L53.002 3.93695C53.1391 4.08911 53.2063 4.28376 53.2063 4.48801Z" fill="#00B1E6"/>
<path d="M54.8115 4.48801V7.37081C54.8115 7.82865 55.1844 8.19877 55.6409 8.19877H58.281C58.5099 8.19877 58.7279 8.10281 58.8842 7.93558L62.5332 4.38109C62.6758 4.22756 62.7567 4.02605 62.7567 3.81769V0.827968C62.7567 0.37012 62.3866 -0.00136702 61.9287 3.78157e-06H59.3338C59.0994 3.78157e-06 58.8773 0.100072 58.721 0.274164L55.0158 3.93695C54.8787 4.08911 54.8115 4.28376 54.8115 4.48801Z" fill="#005493"/>
<path d="M54.8115 13.5134V10.6306C54.8115 10.1727 55.1844 9.80261 55.6409 9.80261H58.281C58.5099 9.80261 58.7279 9.89857 58.8842 10.0658L62.5332 13.6203C62.6758 13.7738 62.7567 13.9753 62.7567 14.1837V17.172C62.7567 17.6299 62.3866 18.0014 61.9287 18H59.3338C59.0994 18 58.8773 17.8999 58.721 17.7258L55.0158 14.0631C54.8787 13.9109 54.8115 13.7163 54.8115 13.512V13.5134Z" fill="#005493"/>
<path d="M53.2063 13.5134V10.6306C53.2063 10.1727 52.8334 9.80261 52.3769 9.80261H49.7368C49.5079 9.80261 49.2899 9.89857 49.1336 10.0658L45.4845 13.6203C45.342 13.7738 45.2611 13.9753 45.2611 14.1837V17.172C45.2611 17.6299 45.6312 18.0014 46.0891 18H48.684C48.9184 18 49.1405 17.8999 49.2968 17.7258L53.002 14.0631C53.1391 13.9109 53.2063 13.7163 53.2063 13.512V13.5134Z" fill="#00B1E6"/>
<path d="M106.14 11.2377C106.14 10.9402 106.237 10.7278 106.433 10.6003C106.629 10.4728 106.818 10.4084 107.002 10.4084H107.999C108.5 10.4084 108.883 10.6551 109.145 11.1486C109.406 11.6421 109.996 11.8888 110.91 11.8888L113.84 11.9423C114.821 11.9423 115.313 11.6531 115.313 11.0732C115.313 10.6359 114.713 10.2905 113.513 10.0382C112.977 9.9231 112.387 9.80795 111.74 9.69418C111.092 9.5804 110.448 9.43921 109.811 9.26786C109.172 9.09651 108.584 8.895 108.049 8.66334C107.513 8.43167 107.08 8.11364 106.747 7.70789C106.415 7.30213 106.249 6.82509 106.249 6.27677C106.249 5.26512 106.648 4.48513 107.446 3.93955C108.244 3.3926 109.616 3.11981 111.564 3.11981L113.69 3.16505C114.835 3.16505 115.866 3.43098 116.783 3.96148C117.701 4.49336 118.16 5.15682 118.16 5.95189C118.16 6.24935 118.063 6.4632 117.867 6.59342C117.672 6.72502 117.485 6.78945 117.306 6.78945H116.311C115.808 6.78945 115.427 6.54133 115.165 6.0451C114.903 5.54887 114.314 5.30076 113.4 5.30076L110.88 5.25552C109.899 5.25552 109.406 5.54476 109.406 6.12461C109.406 6.44127 109.718 6.70172 110.34 6.90185C110.962 7.10336 111.715 7.2802 112.599 7.43373C113.483 7.58726 114.371 7.77231 115.265 7.9889C116.158 8.20549 116.916 8.5619 117.538 9.05813C118.16 9.55436 118.472 10.1726 118.472 10.9128C118.472 11.9245 118.071 12.7045 117.271 13.25C116.47 13.797 115.098 14.0698 113.157 14.0698L110.621 14.0245C109.478 14.0245 108.445 13.7586 107.524 13.2281C106.603 12.6976 106.143 12.0341 106.143 11.2377H106.14Z" fill="white"/>
<path d="M119.729 11.2377C119.729 10.9402 119.826 10.7278 120.022 10.6003C120.217 10.4714 120.407 10.4084 120.591 10.4084H121.587C122.089 10.4084 122.471 10.6551 122.733 11.1486C122.995 11.6421 123.585 11.8888 124.499 11.8888L127.428 11.9423C128.41 11.9423 128.902 11.6531 128.902 11.0732C128.902 10.6359 128.302 10.2905 127.102 10.0382C126.566 9.9231 125.975 9.80795 125.328 9.69418C124.681 9.5804 124.037 9.43921 123.4 9.26786C122.761 9.09651 122.173 8.895 121.638 8.66334C121.102 8.43167 120.669 8.11364 120.336 7.70789C120.004 7.30213 119.838 6.82509 119.838 6.27677C119.838 5.26512 120.237 4.48513 121.035 3.93955C121.833 3.3926 123.205 3.11981 125.153 3.11981L127.279 3.16505C128.424 3.16505 129.454 3.43098 130.371 3.96148C131.29 4.49336 131.749 5.15682 131.749 5.95189C131.749 6.24935 131.652 6.4632 131.456 6.59342C131.261 6.72502 131.073 6.78945 130.895 6.78945H129.9C129.397 6.78945 129.016 6.54133 128.754 6.0451C128.492 5.54887 127.903 5.30076 126.988 5.30076L124.469 5.25552C123.487 5.25552 122.995 5.54476 122.995 6.12461C122.995 6.44127 123.306 6.70172 123.929 6.90185C124.551 7.10336 125.304 7.2802 126.188 7.43373C127.072 7.58726 127.96 7.77231 128.854 7.9889C129.746 8.20549 130.504 8.5619 131.127 9.05813C131.749 9.55436 132.06 10.1726 132.06 10.9128C132.06 11.9245 131.66 12.7045 130.859 13.25C130.059 13.797 128.687 14.0698 126.746 14.0698L124.21 14.0245C123.066 14.0245 122.034 13.7586 121.113 13.2281C120.192 12.6976 119.731 12.0341 119.731 11.2377H119.729Z" fill="white"/>
<path d="M41.878 4.48932C40.7758 3.61612 39.0144 3.17883 36.5935 3.17883H31.915C31.6984 3.17883 31.5092 3.25149 31.3529 3.38994C31.1967 3.5325 31.1185 3.70385 31.1185 3.91358V13.5078C31.1185 13.7847 31.3447 14.0109 31.6216 14.0095H36.5921C39.013 14.0095 40.7745 13.575 41.8766 12.7045C42.9787 11.8341 43.5298 10.4646 43.5298 8.59898C43.5298 6.73332 42.9787 5.36252 41.8766 4.48795L41.878 4.48932ZM39.5654 11.1322C39.0226 11.6243 38.0013 11.8725 36.5017 11.8725H34.2755V5.31591H36.5017C38.0013 5.31591 39.0226 5.56403 39.5654 6.06163C40.1055 6.55649 40.3756 7.40365 40.3756 8.60036C40.3756 9.79707 40.1055 10.6401 39.5654 11.1322Z" fill="white"/>
<path d="M28.4756 5.28985C28.6936 5.28985 28.8786 5.22131 29.0322 5.08149C29.1857 4.94304 29.2625 4.7758 29.2625 4.57978V3.8697C29.2625 3.67368 29.1857 3.50507 29.0322 3.36387C28.8786 3.22268 28.6936 3.15277 28.4756 3.15277H18.8211C18.6031 3.15277 18.4167 3.21994 18.2604 3.35702C18.1041 3.49273 18.026 3.65997 18.026 3.85599V13.4845C18.026 13.7614 18.2494 13.9876 18.5277 13.9862H28.4331C28.6511 13.9862 28.8375 13.9177 28.9938 13.7792C29.1501 13.6408 29.2282 13.4735 29.2282 13.2775V12.5524C29.2282 12.3563 29.1528 12.1891 29.002 12.0534C28.8512 11.9177 28.6703 11.8491 28.4578 11.8491H21.1816V9.62021H27.4612C27.6792 9.62021 27.8642 9.55167 28.0178 9.41322C28.1713 9.27477 28.2481 9.10753 28.2481 8.91014V8.20006C28.2481 8.00404 28.1713 7.8368 28.0178 7.69835C27.8642 7.5599 27.6792 7.48999 27.4612 7.48999H21.1816V5.29122H28.4743L28.4756 5.28985Z" fill="white"/>
<path d="M15.109 3.38994C14.9609 3.24874 14.7786 3.17883 14.5607 3.17883H11.1528C10.9349 3.17883 10.7279 3.24874 10.5332 3.38994C10.3372 3.53113 10.207 3.69974 10.1398 3.89576L7.66964 10.3481L5.19945 3.89576C5.13228 3.69974 5.00206 3.53113 4.80603 3.38994C4.61138 3.24874 4.40439 3.17883 4.18643 3.17883H0.778615C0.560658 3.17883 0.376971 3.24874 0.226182 3.38994C0.0753941 3.53113 0 3.70522 0 3.91221V13.5119C0 13.7888 0.224812 14.015 0.503084 14.0137H2.30295C2.5209 14.0137 2.70596 13.9451 2.85949 13.8067C3.01302 13.6682 3.08979 13.4955 3.08979 13.2885V5.90673L6.03701 13.3337C6.12063 13.5202 6.25908 13.6805 6.45099 13.8135C6.64428 13.9465 6.84853 14.0137 7.06648 14.0137H8.26456C8.48252 14.0137 8.68814 13.9465 8.88417 13.8135C9.07882 13.6805 9.2159 13.5202 9.29404 13.3337L12.2495 5.90673V13.5119C12.2495 13.7888 12.4743 14.015 12.7512 14.0137H14.5428C14.7608 14.0137 14.9459 13.9451 15.0994 13.8067C15.2529 13.6682 15.3297 13.4955 15.3297 13.2885V3.91221C15.3297 3.70522 15.2557 3.5325 15.1076 3.39131L15.109 3.38994Z" fill="white"/>
<path d="M72.625 3.17883H66.2371C66.0192 3.17883 65.8355 3.24874 65.6847 3.38994C65.5339 3.53113 65.4585 3.69974 65.4585 3.89576V13.3036C65.4585 13.4996 65.5366 13.6668 65.6929 13.8053C65.8492 13.9437 66.0356 14.0137 66.2536 14.0137H68.111C68.3893 14.0137 68.6141 13.7888 68.6141 13.5119V11.6038H72.6264C76.0041 11.6038 77.6915 10.2001 77.6915 7.39131C77.6915 4.58253 76.0027 3.17883 72.6264 3.17883H72.625ZM73.8053 9.03764C73.32 9.32277 72.6072 9.46396 71.6696 9.46396H68.6141V5.31591H71.6696C72.6072 5.31591 73.3187 5.45848 73.8053 5.74223C74.2906 6.02599 74.5332 6.57568 74.5332 7.38994C74.5332 8.20419 74.2906 8.75251 73.8053 9.03764Z" fill="white"/>
<path d="M104.193 5.31744C104.411 5.31744 104.596 5.2489 104.75 5.10908C104.903 4.97063 104.98 4.80339 104.98 4.60736V3.89729C104.98 3.70126 104.903 3.53265 104.75 3.39146C104.596 3.25027 104.411 3.18036 104.193 3.18036H94.5401C94.3221 3.18036 94.1357 3.24753 93.9794 3.38461C93.8231 3.52032 93.745 3.68756 93.745 3.88358V13.2887C93.745 13.4956 93.8231 13.6684 93.9794 13.8068C94.1357 13.9453 94.3221 14.0152 94.5401 14.0152H104.444C104.721 14.0152 104.947 13.7904 104.947 13.5135V12.5799C104.947 12.3839 104.872 12.2167 104.721 12.081C104.57 11.9453 104.389 11.8767 104.177 11.8767H96.9006V9.6478H103.18C103.398 9.6478 103.583 9.57926 103.737 9.44081C103.89 9.30236 103.967 9.13512 103.967 8.93773V8.22765C103.967 8.03163 103.89 7.86439 103.737 7.72594C103.583 7.58749 103.398 7.51758 103.18 7.51758H96.9006V5.31881H104.193V5.31744Z" fill="white"/>
<path d="M91.8465 13.3036L90.3235 11.1199C89.9548 10.6058 89.6285 10.2138 89.3434 9.94511C89.0583 9.67506 88.7485 9.48589 88.414 9.37486C90.5182 9.002 91.571 8.08356 91.571 6.6168C91.571 5.56403 91.1625 4.72784 90.3441 4.10824C89.5271 3.48863 88.4784 3.17883 87.2009 3.17883H80.2934C80.0754 3.17883 79.8917 3.24874 79.741 3.38994C79.5902 3.53113 79.5148 3.69974 79.5148 3.89576V13.3036C79.5148 13.4996 79.5929 13.6668 79.7492 13.8053C79.9055 13.9437 80.0919 14.0137 80.3098 14.0137H82.1686C82.4455 14.0137 82.6717 13.7888 82.6717 13.5119V10.0548H84.7142C85.5463 10.0548 86.255 10.4674 86.8403 11.294L88.2632 13.3036C88.3976 13.4996 88.5909 13.6668 88.8444 13.8053C89.098 13.9437 89.3311 14.0137 89.5436 14.0137H91.4229C91.4229 14.0137 91.4243 14.0137 91.4257 14.0137C91.7039 14.0137 91.9288 13.7888 91.9288 13.5119C91.9288 13.5119 91.9342 13.442 91.8451 13.3036H91.8465ZM87.7533 7.60515C87.3146 7.81214 86.8088 7.91495 86.2344 7.91495H82.669V5.31728H86.2344C86.8088 5.31728 87.316 5.42009 87.7533 5.62708C88.1906 5.83408 88.4099 6.16307 88.4099 6.6168C88.4099 7.07054 88.1906 7.39953 87.7533 7.60652V7.60515Z" fill="white"/>
</svg>
