<svg width="15" height="11" viewBox="0 0 15 11" fill="none" xmlns="http://www.w3.org/2000/svg">
<path d="M13.2236 0.139893H1.44128C0.646501 0.139893 0 0.786393 0 1.58117V8.69861C0 9.49339 0.646501 10.1399 1.44128 10.1399H13.2236C14.0184 10.1399 14.6649 9.49339 14.6649 8.69861V1.58117C14.6649 0.786393 14.0184 0.139893 13.2236 0.139893ZM13.9976 8.69861C13.9976 9.12566 13.6507 9.47263 13.2236 9.47263H1.44128C1.01424 9.47263 0.66726 9.12566 0.66726 8.69861V1.58117C0.66726 1.15413 1.01424 0.807152 1.44128 0.807152H13.2236C13.6507 0.807152 13.9976 1.15413 13.9976 1.58117V8.69861Z" fill="#7C8AA7"/>
<path d="M12.927 1.59905C12.8114 1.4567 12.6008 1.43297 12.4584 1.54863L7.71052 5.3535C7.49403 5.52847 7.17671 5.52847 6.95726 5.3535L2.20934 1.54863C2.06699 1.43297 1.85643 1.4567 1.74077 1.59905C1.62511 1.74436 1.64884 1.95195 1.79119 2.06761L5.62274 5.13997L1.79415 8.20937C1.64884 8.32503 1.62808 8.53558 1.74374 8.67793C1.80898 8.76097 1.90685 8.80249 2.00471 8.80249C2.07885 8.80249 2.15299 8.77876 2.2123 8.72835L6.15951 5.56405L6.54208 5.87248C6.77636 6.05931 7.05809 6.15421 7.33686 6.15421C7.61859 6.15421 7.89735 6.05931 8.12867 5.87248L8.5142 5.56405L12.4614 8.72835C12.5237 8.77876 12.5978 8.80249 12.669 8.80249C12.7669 8.80249 12.8647 8.76097 12.93 8.67793C13.0456 8.53262 13.0219 8.32503 12.8796 8.20937L9.04504 5.13997L12.8766 2.07058C13.0189 1.95492 13.0427 1.74436 12.927 1.59905Z" fill="#7C8AA7"/>
</svg>
