<svg width="18" height="13" viewBox="0 0 18 13" fill="none" xmlns="http://www.w3.org/2000/svg">
<path d="M15.5619 0.502441H1.69613C0.760817 0.502441 0 1.26326 0 2.19858V10.5745C0 11.5099 0.760817 12.2707 1.69613 12.2707H15.5619C16.4972 12.2707 17.258 11.5099 17.258 10.5745V2.19858C17.258 1.26326 16.4972 0.502441 15.5619 0.502441ZM16.4727 10.5745C16.4727 11.0771 16.0644 11.4854 15.5619 11.4854H1.69613C1.19358 11.4854 0.785247 11.0771 0.785247 10.5745V2.19858C0.785247 1.69602 1.19358 1.28769 1.69613 1.28769H15.5619C16.0644 1.28769 16.4727 1.69602 16.4727 2.19858V10.5745Z" fill="#293142"/>
<path d="M15.2129 2.2196C15.0768 2.05208 14.829 2.02416 14.6615 2.16027L9.07404 6.63792C8.81927 6.84383 8.44584 6.84383 8.18758 6.63792L2.60011 2.16027C2.43259 2.02416 2.1848 2.05208 2.0487 2.2196C1.91259 2.39061 1.94051 2.63491 2.10803 2.77102L6.61709 6.38664L2.11152 9.99878C1.94051 10.1349 1.91608 10.3827 2.05219 10.5502C2.12897 10.6479 2.24414 10.6968 2.35931 10.6968C2.44655 10.6968 2.5338 10.6689 2.6036 10.6095L7.24878 6.88571L7.69899 7.24867C7.97469 7.46854 8.30624 7.58022 8.6343 7.58022C8.96585 7.58022 9.29391 7.46854 9.56613 7.24867L10.0198 6.88571L14.665 10.6095C14.7383 10.6689 14.8255 10.6968 14.9093 10.6968C15.0245 10.6968 15.1396 10.6479 15.2164 10.5502C15.3525 10.3792 15.3246 10.1349 15.1571 9.99878L10.6445 6.38664L15.1536 2.77451C15.3211 2.6384 15.349 2.39061 15.2129 2.2196Z" fill="#293142"/>
</svg>
