<svg width="50" height="43" viewBox="0 0 50 43" fill="none" xmlns="http://www.w3.org/2000/svg">
<path d="M0 38.9319C0 40.8574 1.56091 42.4183 3.4864 42.4183H46.5136C48.4391 42.4183 50 40.8574 50 38.9319C50 37.0064 48.4391 35.4455 46.5136 35.4455H3.4864C1.56091 35.4455 0 37.0064 0 38.9319ZM0 21.4999C0 23.4254 1.56091 24.9863 3.4864 24.9863H46.5136C48.4391 24.9863 50 23.4254 50 21.4999C50 19.5744 48.4391 18.0135 46.5136 18.0135H3.4864C1.56091 18.0135 0 19.5744 0 21.4999ZM3.4864 0.581543C1.56091 0.581543 0 2.14245 0 4.06794C0 5.99342 1.56091 7.55433 3.4864 7.55433H46.5136C48.4391 7.55433 50 5.99342 50 4.06794C50 2.14245 48.4391 0.581543 46.5136 0.581543H3.4864Z" fill="white"/>
</svg>
