<svg width="61" height="71" viewBox="0 0 61 71" fill="none" xmlns="http://www.w3.org/2000/svg">
<path d="M30.5 70.0625L15.253 61.9329C10.9064 59.6205 7.27147 56.168 4.73841 51.9461C2.20536 47.7242 0.869783 42.8922 0.875015 37.9688V5.875C0.876322 4.56589 1.39694 3.31078 2.32262 2.3851C3.2483 1.45943 4.50341 0.938807 5.81252 0.9375H55.1875C56.4966 0.938807 57.7517 1.45943 58.6774 2.3851C59.6031 3.31078 60.1237 4.56589 60.125 5.875V37.9688C60.1302 42.8922 58.7947 47.7242 56.2616 51.9461C53.7286 56.168 50.0937 59.6205 45.747 61.9329L30.5 70.0625ZM5.81252 5.875V37.9688C5.80842 41.9973 6.90149 45.9508 8.9744 49.4051C11.0473 52.8594 14.0218 55.6839 17.5786 57.5756L30.5 64.4658L43.4215 57.578C46.9786 55.6862 49.9533 52.8613 52.0263 49.4065C54.0992 45.9518 55.1921 41.9977 55.1875 37.9688V5.875H5.81252Z" fill="#293142"/>
<path fill-rule="evenodd" clip-rule="evenodd" d="M15.253 61.9329L30.5 70.0625L45.747 61.9329C50.0937 59.6205 53.7286 56.168 56.2616 51.9461C58.7947 47.7242 60.1302 42.8922 60.125 37.9688V5.875C60.1237 4.56589 59.6031 3.31078 58.6774 2.3851C57.7517 1.45943 56.4966 0.938807 55.1875 0.9375H5.81252C4.50341 0.938807 3.2483 1.45943 2.32262 2.3851C1.39694 3.31078 0.876322 4.56589 0.875015 5.875V37.9688C0.869783 42.8922 2.20536 47.7242 4.73841 51.9461C7.27147 56.168 10.9064 59.6205 15.253 61.9329ZM1.87502 5.87555V37.9698C1.86998 42.7117 3.15629 47.3655 5.59591 51.4316C8.03554 55.4978 11.5364 58.8229 15.7227 61.0501L30.5 68.9292L45.2765 61.0505C49.4629 58.8233 52.9645 55.4978 55.4041 51.4316C57.8437 47.3655 59.1301 42.7117 59.125 37.9698V5.876C59.124 4.83176 58.7087 3.8306 57.9703 3.09221C57.232 2.35393 56.231 1.93866 55.187 1.9375H5.81306C4.76899 1.93866 3.76801 2.35393 3.02973 3.09221C2.29145 3.83049 1.87618 4.83148 1.87502 5.87555ZM4.81252 4.875H56.1875L56.2616 41M43.891 58.4609L30.4999 65.5991L17.109 58.4585M4.81252 4.875V37.9684Z" fill="white"/>
<path d="M56.2616 41L4.81252 4.875V37.9684C4.81252 49.1432 13.0102 56.2846 17.109 58.4585L19.2347 58.4587L43.891 58.4609C47.445 57.1406 54.8947 51.8 56.2616 41Z" fill="white"/>
<path d="M25.5625 36.9566L19.1684 30.5625L15.6875 34.0434L25.5625 43.9184L45.3125 24.1684L41.8316 20.6875L25.5625 36.9566Z" fill="#293142"/>
<path fill-rule="evenodd" clip-rule="evenodd" d="M25.5625 38.3708L19.1684 31.9767L17.1017 34.0434L25.5625 42.5042L43.8983 24.1684L41.8316 22.1017L25.5625 38.3708ZM41.8316 20.6875L45.3125 24.1684L25.5625 43.9184L15.6875 34.0434L19.1684 30.5625L25.5625 36.9566L41.8316 20.6875Z" fill="white"/>
</svg>
