<svg width="13" height="17" viewBox="0 0 13 17" fill="none" xmlns="http://www.w3.org/2000/svg">
<path fill-rule="evenodd" clip-rule="evenodd" d="M2.49275 3.0696C3.50321 2.06152 4.87226 1.49538 6.29959 1.49538C7.72691 1.49538 9.09597 2.06152 10.1064 3.0696C12.1174 5.08079 12.1052 8.29626 10.0767 10.7158L6.29968 15.2218L2.52244 10.7158C0.494175 8.29626 0.481909 5.08026 2.49275 3.0696ZM1.75604 11.3581L5.91603 16.3211C5.96295 16.3771 6.02158 16.4222 6.08779 16.4531C6.15399 16.484 6.22617 16.5 6.29923 16.5C6.3723 16.5 6.44447 16.484 6.51068 16.4531C6.57688 16.4222 6.63551 16.3771 6.68243 16.3211L10.8424 11.3581C11.9281 10.0875 12.5471 8.48399 12.5967 6.81341C12.6165 5.98944 12.4686 5.17004 12.1621 4.40495C11.8556 3.63985 11.3968 2.94501 10.8136 2.36258C9.61421 1.16964 7.99133 0.5 6.29968 0.5C4.60802 0.5 2.98515 1.16964 1.78573 2.36258C1.20236 2.94491 0.743403 3.63971 0.436732 4.40482C0.13006 5.16993 -0.0179344 5.98937 0.00173194 6.81341C0.0513833 8.48399 0.670341 10.0875 1.75604 11.3581ZM6.29968 4.7544C5.88829 4.7544 5.48615 4.87639 5.14409 5.10494C4.80204 5.33349 4.53544 5.65834 4.37801 6.03841C4.22058 6.41848 4.17939 6.8367 4.25965 7.24018C4.3399 7.64366 4.538 8.01428 4.8289 8.30517C5.11979 8.59606 5.49041 8.79416 5.89389 8.87442C6.29737 8.95468 6.71559 8.91349 7.09566 8.75606C7.47573 8.59863 7.80058 8.33203 8.02913 7.98998C8.25768 7.64792 8.37967 7.24578 8.37967 6.83439C8.37892 6.28297 8.15954 5.75436 7.76962 5.36444C7.37971 4.97453 6.85109 4.75515 6.29968 4.7544ZM6.29968 9.91545C6.90895 9.91545 7.50454 9.73478 8.01113 9.39629C8.51772 9.0578 8.91255 8.57668 9.14571 8.01379C9.37887 7.4509 9.43988 6.83151 9.32101 6.23394C9.20215 5.63638 8.90876 5.08748 8.47794 4.65666C8.04712 4.22584 7.49822 3.93245 6.90066 3.81359C6.30309 3.69473 5.6837 3.75573 5.12081 3.98889C4.55792 4.22205 4.0768 4.61689 3.73831 5.12348C3.39982 5.63007 3.21915 6.22565 3.21915 6.83493C3.22009 7.65164 3.54495 8.43464 4.12245 9.01215C4.69996 9.58966 5.48296 9.91451 6.29968 9.91545Z" fill="#7C8AA7"/>
</svg>
