<svg width="15" height="18" viewBox="0 0 15 18" fill="none" xmlns="http://www.w3.org/2000/svg">
<path fill-rule="evenodd" clip-rule="evenodd" d="M2.96792 2.8908C4.17099 1.75671 5.80101 1.1198 7.50041 1.1198C9.19982 1.1198 10.8298 1.75671 12.0329 2.8908C14.4273 5.15339 14.4127 8.77079 11.9976 11.4928L7.50052 16.562L3.00327 11.4928C0.588375 8.77079 0.57377 5.15279 2.96792 2.8908ZM2.09078 12.2154L7.04375 17.7988C7.09961 17.8618 7.16941 17.9125 7.24824 17.9472C7.32707 17.982 7.413 18 7.49999 18C7.58698 18 7.67292 17.982 7.75174 17.9472C7.83057 17.9125 7.90037 17.8618 7.95624 17.7988L12.9092 12.2154C14.2019 10.7859 14.9388 8.98199 14.9979 7.10259C15.0214 6.17562 14.8454 5.2538 14.4804 4.39307C14.1155 3.53233 13.5693 2.75063 12.8749 2.0954C11.4469 0.753347 9.51464 0 7.50052 0C5.4864 0 3.55418 0.753347 2.12612 2.0954C1.43155 2.75052 0.885111 3.53218 0.519981 4.39292C0.154852 5.25367 -0.0213531 6.17554 0.00206209 7.10259C0.0611779 8.98199 0.798122 10.7859 2.09078 12.2154ZM7.50052 4.78619C7.01072 4.78619 6.53192 4.92343 6.12466 5.18056C5.7174 5.43768 5.39999 5.80313 5.21255 6.23071C5.02511 6.65829 4.97606 7.12879 5.07162 7.5827C5.16718 8.03662 5.40304 8.45356 5.74938 8.78082C6.09572 9.10807 6.53699 9.33094 7.01738 9.42122C7.49777 9.51151 7.99571 9.46518 8.44823 9.28807C8.90075 9.11096 9.28752 8.81103 9.55964 8.42622C9.83176 8.04141 9.97701 7.589 9.97701 7.12619C9.97611 6.50585 9.71491 5.91115 9.25067 5.4725C8.78643 5.03385 8.15705 4.78704 7.50052 4.78619ZM7.50052 10.5924C8.22593 10.5924 8.93505 10.3891 9.53821 10.0083C10.1414 9.62752 10.6115 9.08627 10.8891 8.45302C11.1667 7.81976 11.2393 7.12295 11.0978 6.45069C10.9563 5.77843 10.6069 5.16092 10.094 4.67625C9.58106 4.19157 8.92753 3.86151 8.21606 3.72779C7.50459 3.59407 6.76713 3.6627 6.09694 3.925C5.42675 4.1873 4.85392 4.6315 4.45091 5.20141C4.04789 5.77132 3.83278 6.44136 3.83278 7.12679C3.8339 8.0456 4.22068 8.92647 4.90828 9.57617C5.59587 10.2259 6.52812 10.5913 7.50052 10.5924Z" fill="#293142"/>
</svg>
