<svg width="59" height="74" viewBox="0 0 59 74" fill="none" xmlns="http://www.w3.org/2000/svg">
<path d="M29.5 33.5C28.9039 33.5 28.3137 33.6164 27.763 33.8425C27.2123 34.0687 26.7119 34.4001 26.2904 34.818C25.8689 35.2359 25.5346 35.7319 25.3065 36.2779C25.0784 36.8239 24.961 37.409 24.961 38C24.961 38.5909 25.0784 39.1761 25.3065 39.722C25.5346 40.268 25.8689 40.7641 26.2904 41.1819C26.7119 41.5998 27.2123 41.9313 27.763 42.1574C28.3137 42.3836 28.9039 42.5 29.5 42.5C30.7038 42.5 31.8583 42.0259 32.7095 41.1819C33.5608 40.338 34.039 39.1934 34.039 38C34.039 36.8065 33.5608 35.6619 32.7095 34.818C31.8583 33.9741 30.7038 33.5 29.5 33.5ZM26.474 38C26.474 37.606 26.5522 37.2159 26.7043 36.8519C26.8564 36.4879 27.0793 36.1572 27.3603 35.8787C27.6413 35.6001 27.9748 35.3791 28.342 35.2283C28.7091 35.0776 29.1026 35 29.5 35C29.8974 35 30.2908 35.0776 30.658 35.2283C31.0251 35.3791 31.3587 35.6001 31.6397 35.8787C31.9207 36.1572 32.1436 36.4879 32.2956 36.8519C32.4477 37.2159 32.526 37.606 32.526 38C32.526 38.7956 32.2072 39.5587 31.6397 40.1213C31.0722 40.6839 30.3025 41 29.5 41C28.6974 41 27.9278 40.6839 27.3603 40.1213C26.7928 39.5587 26.474 38.7956 26.474 38ZM37.2768 46.3949L35.5338 45.6359C35.2857 45.5291 35.0159 45.4812 34.7459 45.4961C34.4758 45.5111 34.213 45.5884 33.9785 45.7219C33.5074 45.9919 33.2068 46.4689 33.1473 47.0059L32.9375 48.8859C32.9164 49.0749 32.8369 49.2527 32.71 49.3952C32.5831 49.5376 32.4149 49.6378 32.2284 49.6819C30.4339 50.106 28.564 50.106 26.7695 49.6819C26.5832 49.6376 26.4153 49.5374 26.2885 49.3949C26.1618 49.2525 26.0825 49.0747 26.0614 48.8859L25.8516 47.0089C25.8215 46.7448 25.7293 46.4913 25.5826 46.2689C25.4358 46.0464 25.2384 45.8611 25.0064 45.7279C24.7745 45.595 24.5145 45.518 24.2471 45.5031C23.9797 45.4881 23.7126 45.5357 23.4671 45.6419L21.7242 46.4009C21.548 46.4777 21.3521 46.4982 21.1636 46.4597C20.9751 46.4212 20.8033 46.3255 20.6721 46.1859C19.4176 44.8531 18.4841 43.2558 17.9417 41.514C17.8846 41.3309 17.8864 41.1348 17.9468 40.9527C18.0071 40.7707 18.1231 40.6118 18.2786 40.498L19.8188 39.37C20.0356 39.212 20.2119 39.0057 20.3334 38.7677C20.455 38.5297 20.5183 38.2667 20.5183 38C20.5183 37.7332 20.455 37.4702 20.3334 37.2322C20.2119 36.9942 20.0356 36.7879 19.8188 36.63L18.2786 35.505C18.1229 35.3911 18.0068 35.232 17.9464 35.0498C17.8861 34.8675 17.8844 34.6712 17.9417 34.488C18.4852 32.7477 19.4194 31.152 20.6741 29.821C20.8055 29.6816 20.9773 29.5861 21.1658 29.5478C21.3542 29.5094 21.5501 29.5301 21.7262 29.607L23.4611 30.364C23.7079 30.4693 23.9762 30.5159 24.2445 30.5C24.5128 30.4841 24.7736 30.4062 25.006 30.2724C25.2384 30.1387 25.4361 29.9529 25.5831 29.7298C25.7301 29.5068 25.8224 29.2527 25.8526 28.988L26.0645 27.11C26.0858 26.9189 26.1667 26.7393 26.296 26.596C26.4253 26.4528 26.5965 26.3531 26.7857 26.311C27.6743 26.115 28.5811 26.011 29.5131 26C30.4229 26.01 31.3287 26.115 32.2163 26.311C32.4057 26.3531 32.577 26.4528 32.7064 26.5963C32.8357 26.7397 32.9165 26.9197 32.9375 27.111L33.1483 28.989C33.1938 29.4055 33.3927 29.7907 33.7068 30.0708C34.021 30.3509 34.4284 30.5062 34.851 30.507C35.086 30.507 35.319 30.458 35.5368 30.363L37.2718 29.606C37.4478 29.5291 37.6437 29.5084 37.8322 29.5468C38.0207 29.5851 38.1924 29.6806 38.3238 29.82C39.5782 31.1511 40.5121 32.7467 41.0553 34.487C41.1124 34.67 41.1108 34.866 41.0506 35.048C40.9904 35.2301 40.8747 35.389 40.7194 35.503L39.1812 36.63C38.7424 36.95 38.4771 37.459 38.4771 38C38.4771 38.54 38.7424 39.049 39.1822 39.37L40.7214 40.496C41.0401 40.73 41.1753 41.138 41.0583 41.513C40.5151 43.253 39.5817 44.8486 38.3278 46.1799C38.1966 46.3195 38.0249 46.4152 37.8364 46.4537C37.6479 46.4922 37.453 46.4717 37.2768 46.3949ZM31.7826 46.1969C32.0233 45.4496 32.5356 44.8177 33.2199 44.424C33.6602 44.1725 34.1538 44.0269 34.6612 43.9989C35.1685 43.971 35.6754 44.0614 36.141 44.263L37.4967 44.853C38.3675 43.8534 39.0415 42.7008 39.4838 41.455L38.2845 40.578C37.8761 40.2807 37.5439 39.8916 37.3146 39.4439C37.0853 38.9961 36.9652 38.5012 36.9641 37.999C36.9641 36.972 37.4654 36.019 38.2824 35.423L38.2845 35.422L39.4817 34.545C39.0391 33.2994 38.3648 32.1471 37.4937 31.148L36.1491 31.734L36.1471 31.735C35.7376 31.915 35.2968 32.007 34.8499 32.007C34.0553 32.0058 33.289 31.7142 32.6976 31.1881C32.1062 30.6619 31.7313 29.9381 31.6444 29.155V29.153L31.48 27.693C30.8311 27.5732 30.1731 27.5086 29.5131 27.5C28.8447 27.5083 28.1783 27.5729 27.521 27.693L27.3566 29.154C27.3 29.6526 27.1263 30.131 26.8493 30.5509C26.5723 30.9708 26.1999 31.3204 25.7618 31.5716C25.3238 31.8229 24.8324 31.9687 24.3272 31.9974C23.822 32.0261 23.317 31.9369 22.8529 31.737L21.5053 31.149C20.6341 32.1481 19.9598 33.3003 19.5172 34.546L20.7175 35.423C21.125 35.7205 21.4562 36.1087 21.6845 36.5564C21.9127 37.0042 22.0317 37.4988 22.0317 38.0005C22.0317 38.5021 21.9127 38.9968 21.6845 39.4445C21.4562 39.8922 21.125 40.2805 20.7175 40.578L19.5172 41.456C19.9589 42.7036 20.633 43.8579 21.5043 44.8589L22.8609 44.269C23.3236 44.0682 23.8274 43.978 24.3316 44.0058C24.8359 44.0336 25.3265 44.1786 25.7639 44.429C26.201 44.6793 26.5729 45.0279 26.8495 45.4466C27.1261 45.8654 27.2998 46.3426 27.3566 46.8399V46.8449L27.52 48.3089C28.8282 48.5639 30.1728 48.5639 31.481 48.3089L31.6444 46.8419C31.6686 46.6219 31.714 46.4049 31.7826 46.1969Z" fill="#293142"/>
<path d="M35.0612 11.7686C35.4298 11.3969 35.6369 10.8928 35.6369 10.3671C35.6369 9.84147 35.4298 9.33734 35.0612 8.9656L26.7194 0.556469C26.3485 0.195368 25.8518 -0.00444169 25.3362 7.49381e-05C24.8206 0.00459156 24.3274 0.213073 23.9628 0.580617C23.5982 0.948161 23.3914 1.44536 23.3869 1.96512C23.3824 2.48489 23.5806 2.98564 23.9388 3.35951L27.86 7.31232C21.8145 7.65107 16.0189 9.85704 11.26 13.6307C6.50117 17.4044 3.00957 22.563 1.25931 28.4061C-0.490962 34.2492 -0.415103 40.4937 1.47658 46.2919C3.36827 52.09 6.98413 57.1609 11.8333 60.816C12.2505 61.1314 12.7749 61.2669 13.2912 61.1925C13.8075 61.1181 14.2734 60.8401 14.5863 60.4195C14.8992 59.9989 15.0336 59.4702 14.9598 58.9497C14.8861 58.4293 14.6102 57.9596 14.193 57.6442C9.87469 54.3903 6.68739 49.8435 5.08674 44.6537C3.4861 39.4639 3.55406 33.8968 5.28093 28.7482C7.00779 23.5997 10.3051 19.1333 14.7016 15.9876C19.098 12.8418 24.3685 11.1778 29.7596 11.2334C29.854 11.2334 29.9562 11.2255 30.0467 11.2136L23.9388 17.3747C23.5806 17.7486 23.3824 18.2494 23.3869 18.7691C23.3914 19.2889 23.5982 19.7861 23.9628 20.1536C24.3274 20.5212 24.8206 20.7296 25.3362 20.7342C25.8518 20.7387 26.3485 20.5389 26.7194 20.1778L35.0612 11.7686ZM23.9388 62.2314C23.5702 62.6031 23.3631 63.1072 23.3631 63.6329C23.3631 64.1585 23.5702 64.6627 23.9388 65.0344L32.2806 73.4435C32.6515 73.8046 33.1482 74.0044 33.6638 73.9999C34.1794 73.9954 34.6726 73.7869 35.0372 73.4194C35.4018 73.0518 35.6086 72.5546 35.6131 72.0349C35.6176 71.5151 35.4194 71.0144 35.0612 70.6405L31.14 66.6877C37.1855 66.3489 42.9811 64.143 47.74 60.3693C52.4988 56.5956 55.9904 51.437 57.7407 45.5939C59.491 39.7508 59.4151 33.5063 57.5234 27.7081C55.6317 21.91 52.0159 16.8391 47.1667 13.184C46.9602 13.0278 46.7251 12.9142 46.4749 12.8496C46.2247 12.785 45.9644 12.7707 45.7088 12.8075C45.4531 12.8443 45.2072 12.9315 44.985 13.0642C44.7628 13.1968 44.5686 13.3723 44.4137 13.5805C44.2587 13.7888 44.146 14.0258 44.0819 14.2779C44.0178 14.5301 44.0036 14.7926 44.0402 15.0503C44.0767 15.308 44.1632 15.5559 44.2948 15.7799C44.4263 16.0039 44.6004 16.1996 44.807 16.3558C49.1256 19.6098 52.313 24.157 53.9136 29.3473C55.5142 34.5375 55.4459 40.105 53.7185 45.2537C51.9911 50.4024 48.6931 54.8688 44.296 58.0142C39.8989 61.1596 34.6279 62.823 29.2365 62.7666C29.1404 62.7661 29.0445 62.7728 28.9494 62.7864L35.0612 56.6253C35.249 56.4424 35.3988 56.2237 35.5019 55.9818C35.6049 55.74 35.6592 55.4798 35.6614 55.2166C35.6637 54.9534 35.614 54.6924 35.5151 54.4487C35.4162 54.2051 35.2702 53.9838 35.0855 53.7977C34.9009 53.6115 34.6814 53.4643 34.4397 53.3647C34.198 53.265 33.9391 53.2148 33.678 53.2171C33.4169 53.2194 33.1588 53.2741 32.9189 53.378C32.679 53.4819 32.462 53.6329 32.2806 53.8222L23.9388 62.2314Z" fill="#293142"/>
<path fill-rule="evenodd" clip-rule="evenodd" d="M26.6815 7.40225C21.0636 7.94524 15.7088 10.103 11.26 13.6307C6.50117 17.4044 3.00957 22.563 1.25931 28.4061C-0.490962 34.2492 -0.415103 40.4937 1.47658 46.2919C3.36827 52.09 6.98413 57.1609 11.8333 60.816C12.2505 61.1314 12.7749 61.2669 13.2912 61.1925C13.8075 61.1181 14.2734 60.8401 14.5863 60.4195C14.8992 59.9989 15.0336 59.4702 14.9598 58.9497C14.8861 58.4293 14.6102 57.9596 14.193 57.6442C9.87469 54.3903 6.68739 49.8435 5.08674 44.6537C3.4861 39.4639 3.55406 33.8968 5.28093 28.7482C7.00779 23.5997 10.3051 19.1333 14.7016 15.9876C18.8232 13.0385 23.713 11.3917 28.7501 11.2431C29.086 11.2332 29.4226 11.2299 29.7596 11.2334C29.854 11.2334 29.9562 11.2255 30.0467 11.2136L23.9388 17.3747C23.5806 17.7486 23.3824 18.2494 23.3869 18.7691C23.3914 19.2889 23.5982 19.7861 23.9628 20.1536C24.3274 20.5212 24.8206 20.7296 25.3362 20.7342C25.8518 20.7387 26.3485 20.5389 26.7194 20.1778L35.0612 11.7686C35.4298 11.3969 35.6369 10.8928 35.6369 10.3671C35.6369 9.84147 35.4298 9.33734 35.0612 8.9656L26.7194 0.556469C26.3485 0.195368 25.8518 -0.00444169 25.3362 7.49381e-05C24.8206 0.00459156 24.3274 0.213073 23.9628 0.580617C23.5982 0.948161 23.3914 1.44536 23.3869 1.96512C23.3824 2.48489 23.5806 2.98564 23.9388 3.35951L27.86 7.31232C27.466 7.33439 27.0731 7.3644 26.6815 7.40225ZM24.5841 2.7321L29.908 8.09897L27.9103 8.21091C22.051 8.53923 16.433 10.6773 11.8193 14.3359C7.20538 17.9946 3.81911 22.9969 2.12146 28.6644C0.42379 34.3319 0.49738 40.3889 2.3322 46.0127C4.16699 51.6365 7.67371 56.5536 12.375 60.0973L12.376 60.098C12.6022 60.2691 12.8852 60.3417 13.163 60.3017C13.4408 60.2617 13.6935 60.1118 13.8642 59.8823C14.0352 59.6525 14.1093 59.3624 14.0687 59.076C14.0282 58.79 13.877 58.5338 13.6508 58.3625C9.18087 54.9943 5.88282 50.2886 4.22672 44.9189C2.57057 39.5491 2.64088 33.7892 4.42764 28.462C6.21444 23.1348 9.62666 18.5121 14.1779 15.2556C18.7277 12.0002 24.1827 10.277 29.7633 10.3334C29.8113 10.3332 29.8721 10.3288 29.9293 10.3213L32.5387 9.97816L24.5842 18.0021C24.3919 18.2052 24.2844 18.4775 24.2869 18.7614C24.2893 19.0474 24.4032 19.3197 24.6017 19.5198C24.8 19.7197 25.0668 19.8318 25.3441 19.8342C25.6192 19.8366 25.8858 19.7309 26.0869 19.5375L34.4221 11.1349C34.6228 10.9325 34.7369 10.6564 34.7369 10.3671C34.7369 10.0778 34.6229 9.80185 34.4222 9.59943L26.0868 1.1967C25.8857 1.00331 25.6192 0.89763 25.3441 0.90004C25.0668 0.90247 24.8 1.01455 24.6017 1.21445C24.4032 1.41458 24.2893 1.6868 24.2869 1.97288C24.2844 2.25673 24.3919 2.52893 24.5841 2.7321ZM35.0612 56.6253C35.249 56.4424 35.3988 56.2237 35.5019 55.9818C35.6049 55.7399 35.6592 55.4798 35.6614 55.2166C35.6637 54.9534 35.614 54.6924 35.5151 54.4487C35.4162 54.2051 35.2702 53.9838 35.0855 53.7977C34.9009 53.6115 34.6813 53.4643 34.4397 53.3647C34.198 53.265 33.9391 53.2148 33.678 53.2171C33.4169 53.2194 33.1588 53.2741 32.9189 53.378C32.679 53.4819 32.462 53.6329 32.2806 53.8222L23.9388 62.2314C23.5702 62.6031 23.3631 63.1072 23.3631 63.6329C23.3631 64.1585 23.5702 64.6627 23.9388 65.0344L32.2806 73.4435C32.6515 73.8046 33.1482 74.0044 33.6638 73.9999C34.1794 73.9954 34.6726 73.7869 35.0372 73.4194C35.4018 73.0518 35.6086 72.5546 35.6131 72.0349C35.6176 71.5151 35.4194 71.0144 35.0612 70.6405L31.14 66.6877C31.534 66.6656 31.9269 66.6356 32.3185 66.5977C37.9364 66.0548 43.2912 63.897 47.74 60.3693C52.4988 56.5956 55.9904 51.437 57.7407 45.5939C59.491 39.7508 59.4151 33.5063 57.5234 27.7081C55.6317 21.91 52.0159 16.8391 47.1667 13.184C46.9602 13.0278 46.7251 12.9142 46.4749 12.8496C46.2247 12.785 45.9644 12.7707 45.7088 12.8075C45.4531 12.8443 45.2072 12.9315 44.985 13.0642C44.7628 13.1968 44.5686 13.3722 44.4137 13.5805C44.2587 13.7888 44.146 14.0258 44.0819 14.2779C44.0178 14.5301 44.0036 14.7926 44.0402 15.0503C44.0767 15.308 44.1632 15.5559 44.2948 15.7799C44.4263 16.0039 44.6004 16.1996 44.807 16.3558C49.1256 19.6098 52.313 24.157 53.9136 29.3473C55.5142 34.5375 55.4459 40.105 53.7185 45.2537C51.9911 50.4024 48.6931 54.8688 44.296 58.0142C40.1739 60.9629 35.2836 62.6092 30.2462 62.7571C29.9102 62.7669 29.5736 62.7701 29.2365 62.7666C29.1404 62.7661 29.0445 62.7728 28.9494 62.7864L35.0612 56.6253ZM29.2304 63.6666C29.1792 63.6664 29.128 63.67 29.0772 63.6773L26.4199 64.0584L34.4277 55.9859L34.4333 55.9804C34.5355 55.8809 34.6174 55.7615 34.6739 55.629C34.7304 55.4964 34.7602 55.3536 34.7615 55.2089C34.7627 55.0641 34.7354 54.9208 34.6811 54.7872C34.6269 54.6536 34.5471 54.5328 34.4466 54.4315C34.3461 54.3302 34.2271 54.2505 34.0965 54.1967C33.966 54.1428 33.8264 54.1158 33.6858 54.1171C33.5453 54.1183 33.4061 54.1477 33.2765 54.2039C33.1469 54.26 33.0292 54.3418 32.9305 54.4449L32.925 54.4505L24.5779 62.8651C24.3772 63.0675 24.2631 63.3436 24.2631 63.6329C24.2631 63.9222 24.3771 64.1982 24.5778 64.4006L32.9132 72.8033C33.1143 72.9967 33.3808 73.1024 33.6559 73.1C33.9332 73.0975 34.2 72.9854 34.3983 72.7856C34.5968 72.5854 34.7107 72.3132 34.7131 72.0271C34.7156 71.7433 34.6081 71.471 34.4158 71.2679L29.092 65.901L31.0897 65.7891C36.949 65.4608 42.567 63.3227 47.1808 59.6641C51.7946 56.0054 55.1809 51.0031 56.8785 45.3356C58.5762 39.6681 58.5026 33.6111 56.6678 27.9873C54.833 22.3635 51.3263 17.4464 46.625 13.9027L46.624 13.9019C46.5119 13.8172 46.3847 13.7558 46.2499 13.721C46.115 13.6862 45.9748 13.6785 45.8371 13.6983C45.6993 13.7181 45.5665 13.7652 45.4462 13.837C45.3259 13.9088 45.2203 14.0041 45.1358 14.1177C45.0512 14.2314 44.9894 14.3611 44.9542 14.4996C44.919 14.6381 44.9112 14.7823 44.9313 14.924C44.9513 15.0656 44.9988 15.2016 45.0708 15.3241C45.1426 15.4464 45.2373 15.5528 45.3492 15.6375C49.8194 19.0059 53.1176 23.712 54.7736 29.082C56.4297 34.4522 56.3591 40.2126 54.5718 45.54C52.7845 50.8674 49.3716 55.4901 44.8197 58.7462C40.2686 62.0018 34.8122 63.7243 29.2304 63.6666Z" fill="#EDF9FD"/>
</svg>
