<svg width="75" height="73" viewBox="0 0 75 73" fill="none" xmlns="http://www.w3.org/2000/svg">
<path fill-rule="evenodd" clip-rule="evenodd" d="M1.96969 1.89254C3.18146 0.680767 4.82498 0 6.53869 0H50.231C51.9447 0 53.5882 0.680767 54.8 1.89254C56.0118 3.10431 56.6925 4.74783 56.6925 6.46154V66.5385C56.6925 68.2522 56.0118 69.8957 54.8 71.1075C53.5882 72.3192 51.9447 73 50.231 73H6.53869C4.82498 73 3.18146 72.3192 1.96969 71.1075C0.757916 69.8957 0.0771484 68.2522 0.0771484 66.5385V6.46154C0.0771484 4.74783 0.757915 3.10431 1.96969 1.89254ZM6.53869 2C5.35541 2 4.2206 2.47005 3.3839 3.30675C2.5472 4.14345 2.07715 5.27826 2.07715 6.46154V66.5385C2.07715 67.7217 2.5472 68.8565 3.3839 69.6932C4.2206 70.5299 5.35541 71 6.53869 71H50.231C51.4143 71 52.5491 70.5299 53.3858 69.6932C54.2225 68.8565 54.6925 67.7217 54.6925 66.5385V6.46154C54.6925 5.27826 54.2225 4.14346 53.3858 3.30675C52.5491 2.47005 51.4143 2 50.231 2H6.53869ZM11.0002 17.3846C11.0002 16.8323 11.4479 16.3846 12.0002 16.3846H22.9233C23.4756 16.3846 23.9233 16.8323 23.9233 17.3846C23.9233 17.9369 23.4756 18.3846 22.9233 18.3846H12.0002C11.4479 18.3846 11.0002 17.9369 11.0002 17.3846ZM11.0002 36.5C11.0002 35.9477 11.4479 35.5 12.0002 35.5H44.7695C45.3217 35.5 45.7695 35.9477 45.7695 36.5C45.7695 37.0523 45.3217 37.5 44.7695 37.5H12.0002C11.4479 37.5 11.0002 37.0523 11.0002 36.5ZM11.0002 47.4231C11.0002 46.8708 11.4479 46.4231 12.0002 46.4231H44.7695C45.3217 46.4231 45.7695 46.8708 45.7695 47.4231C45.7695 47.9754 45.3217 48.4231 44.7695 48.4231H12.0002C11.4479 48.4231 11.0002 47.9754 11.0002 47.4231ZM11.0002 58.3462C11.0002 57.7939 11.4479 57.3462 12.0002 57.3462H22.9233C23.4756 57.3462 23.9233 57.7939 23.9233 58.3462C23.9233 58.8984 23.4756 59.3462 22.9233 59.3462H12.0002C11.4479 59.3462 11.0002 58.8984 11.0002 58.3462Z" fill="#293142"/>
<path d="M44.7697 18.7499C45.5238 18.7499 46.1351 18.1386 46.1351 17.3845C46.1351 16.6305 45.5238 16.0192 44.7697 16.0192C44.0156 16.0192 43.4043 16.6305 43.4043 17.3845C43.4043 18.1386 44.0156 18.7499 44.7697 18.7499Z" fill="#293142"/>
<path fill-rule="evenodd" clip-rule="evenodd" d="M44.7697 16.5192C44.2917 16.5192 43.9043 16.9066 43.9043 17.3845C43.9043 17.8625 44.2917 18.2499 44.7697 18.2499C45.2476 18.2499 45.6351 17.8625 45.6351 17.3845C45.6351 16.9066 45.2476 16.5192 44.7697 16.5192ZM42.9043 17.3845C42.9043 16.3543 43.7395 15.5192 44.7697 15.5192C45.7999 15.5192 46.6351 16.3543 46.6351 17.3845C46.6351 18.4148 45.7999 19.2499 44.7697 19.2499C43.7395 19.2499 42.9043 18.4148 42.9043 17.3845Z" fill="#293142"/>
<path d="M74.5267 72.5267C74.3769 72.6768 74.1989 72.7958 74.003 72.877C73.8071 72.9582 73.5972 73 73.3851 73C73.1731 73 72.9631 72.9582 72.7672 72.877C72.5713 72.7958 72.3933 72.6768 72.2435 72.5267L62.1462 62.4275C58.632 65.3547 54.1245 66.8143 49.5615 66.5028C44.9984 66.1912 40.7312 64.1325 37.6474 60.7549C34.5636 57.3772 32.9007 52.9407 33.0046 48.3682C33.1085 43.7958 34.9712 39.4394 38.2053 36.2053C41.4394 32.9712 45.7958 31.1085 50.3682 31.0046C54.9407 30.9007 59.3772 32.5636 62.7549 35.6474C66.1325 38.7312 68.1912 42.9984 68.5028 47.5615C68.8143 52.1245 67.3547 56.632 64.4275 60.1462L74.5267 70.2435C74.6768 70.3933 74.7958 70.5713 74.877 70.7672C74.9582 70.9631 75 71.1731 75 71.3851C75 71.5972 74.9582 71.8071 74.877 72.003C74.7958 72.1989 74.6768 72.3769 74.5267 72.5267ZM50.7944 63.317C53.6667 63.317 56.4745 62.4653 58.8627 60.8695C61.251 59.2737 63.1124 57.0056 64.2115 54.352C65.3107 51.6983 65.5983 48.7783 65.038 45.9612C64.4776 43.1441 63.0945 40.5564 61.0634 38.5254C59.0324 36.4944 56.4447 35.1112 53.6276 34.5509C50.8105 33.9905 47.8905 34.2781 45.2369 35.3773C42.5832 36.4765 40.3151 38.3379 38.7193 40.7261C37.1236 43.1143 36.2718 45.9221 36.2718 48.7944C36.2761 52.6447 37.8075 56.3361 40.5301 59.0587C43.2527 61.7813 46.9441 63.3127 50.7944 63.317Z" fill="#293142"/>
<path fill-rule="evenodd" clip-rule="evenodd" d="M74.1027 72.1022C74.197 72.0081 74.2717 71.8963 74.3227 71.7733C74.3737 71.6502 74.4 71.5183 74.4 71.3851C74.4 71.2519 74.3737 71.12 74.3227 70.997C74.2717 70.8739 74.197 70.7621 74.1027 70.668L63.6158 60.1832L63.9665 59.7622C66.7948 56.3666 68.2052 52.0113 67.9042 47.6023C67.6031 43.1934 65.6139 39.0702 62.3503 36.0905C59.0867 33.1108 54.8 31.504 50.3819 31.6044C45.9638 31.7048 41.7544 33.5047 38.6296 36.6296C35.5047 39.7544 33.7048 43.9638 33.6044 48.3819C33.504 52.8 35.1108 57.0867 38.0905 60.3503C41.0702 63.6139 45.1934 65.6031 49.6023 65.9042C54.0113 66.2052 58.3666 64.7948 61.7622 61.9665L62.1832 61.6158L72.6678 72.1025C72.7619 72.1968 72.8739 72.2717 72.997 72.3227C73.12 72.3737 73.2519 72.4 73.3851 72.4C73.5183 72.4 73.6502 72.3737 73.7733 72.3227C73.8963 72.2717 74.0086 72.1965 74.1027 72.1022ZM50.7937 63.917C46.7845 63.9126 42.9408 62.3179 40.1058 59.483C37.2709 56.648 35.6763 52.8043 35.6718 48.7951C35.6718 45.8041 36.5587 42.8797 38.2204 40.3928C39.8821 37.9059 42.244 35.9676 45.0072 34.823C47.7705 33.6784 50.8112 33.3789 53.7447 33.9624C56.6782 34.5459 59.3728 35.9862 61.4877 38.1011C63.6026 40.2161 65.0429 42.9106 65.6264 45.8441C66.2099 48.7776 65.9105 51.8183 64.7659 54.5816C63.6213 57.3449 61.683 59.7067 59.1961 61.3684C56.7092 63.0301 53.7847 63.917 50.7937 63.917ZM72.2435 72.5267C72.3933 72.6768 72.5713 72.7958 72.7672 72.877C72.9631 72.9582 73.1731 73 73.3851 73C73.5972 73 73.8071 72.9582 74.003 72.877C74.1989 72.7958 74.3769 72.6768 74.5267 72.5267C74.6768 72.3769 74.7958 72.1989 74.877 72.003C74.9582 71.8071 75 71.5972 75 71.3851C75 71.1731 74.9582 70.9631 74.877 70.7672C74.7958 70.5713 74.6768 70.3933 74.5267 70.2435L64.4275 60.1462C67.3547 56.632 68.8143 52.1245 68.5028 47.5615C68.1912 42.9984 66.1325 38.7312 62.7549 35.6474C59.3772 32.5636 54.9407 30.9007 50.3682 31.0046C45.7958 31.1085 41.4394 32.9712 38.2053 36.2053C34.9712 39.4394 33.1085 43.7958 33.0046 48.3682C32.9007 52.9407 34.5636 57.3772 37.6474 60.7549C40.7312 64.1325 44.9984 66.1912 49.5615 66.5028C54.1245 66.8143 58.632 65.3547 62.1462 62.4275L72.2435 72.5267ZM36.2718 48.7944C36.2718 45.9221 37.1236 43.1143 38.7193 40.7261C40.3151 38.3379 42.5832 36.4765 45.2369 35.3773C47.8905 34.2781 50.8105 33.9905 53.6276 34.5509C56.4447 35.1112 59.0324 36.4944 61.0634 38.5254C63.0945 40.5564 64.4776 43.1441 65.038 45.9612C65.5983 48.7783 65.3107 51.6983 64.2115 54.352C63.1124 57.0056 61.251 59.2737 58.8627 60.8695C56.4745 62.4653 53.6667 63.317 50.7944 63.317C46.9441 63.3127 43.2527 61.7813 40.5301 59.0587C37.8075 56.3361 36.2761 52.6447 36.2718 48.7944Z" fill="#EDF9FD"/>
<path d="M66 49C66 57.2843 59.2843 64 51 64C42.7157 64 36 57.2843 36 49C36 40.7157 42.7157 34 51 34C59.2843 34 66 40.7157 66 49Z" fill="#EDF9FD"/>
<path d="M61.1369 48.3007C61.109 48.2367 60.4265 46.7232 58.9024 45.1991C57.4882 43.7865 55.0584 42.1016 51.4999 42.1016C47.9414 42.1016 45.5116 43.7865 44.0974 45.1991C42.5732 46.7232 41.8907 48.2342 41.8628 48.3007C41.8348 48.3637 41.8203 48.4319 41.8203 48.5008C41.8203 48.5698 41.8348 48.638 41.8628 48.701C41.8907 48.7641 42.5732 50.2776 44.0974 51.8018C45.5116 53.2143 47.9414 54.8984 51.4999 54.8984C55.0584 54.8984 57.4882 53.2143 58.9024 51.8018C60.4265 50.2776 61.109 48.7666 61.1369 48.701C61.165 48.638 61.1794 48.5698 61.1794 48.5008C61.1794 48.4319 61.165 48.3637 61.1369 48.3007ZM51.4999 53.9141C48.9257 53.9141 46.6781 52.9773 44.8184 51.1307C44.0389 50.356 43.3792 49.4693 42.8612 48.5C43.379 47.5308 44.0387 46.6444 44.8184 45.8701C46.6781 44.0227 48.9257 43.0859 51.4999 43.0859C54.074 43.0859 56.3217 44.0227 58.1813 45.8701C58.961 46.6444 59.6207 47.5308 60.1386 48.5C59.6161 49.5016 56.996 53.9141 51.4999 53.9141ZM51.4999 44.7266C50.7536 44.7266 50.024 44.9479 49.4035 45.3625C48.7829 45.7771 48.2993 46.3665 48.0137 47.056C47.7281 47.7455 47.6533 48.5042 47.7989 49.2362C47.9445 49.9681 48.3039 50.6405 48.8317 51.1682C49.3594 51.6959 50.0317 52.0553 50.7637 52.2009C51.4957 52.3465 52.2544 52.2718 52.9439 51.9862C53.6334 51.7006 54.2227 51.2169 54.6374 50.5964C55.052 49.9759 55.2733 49.2463 55.2733 48.5C55.272 47.4996 54.874 46.5406 54.1667 45.8332C53.4593 45.1258 52.5003 44.7279 51.4999 44.7266ZM51.4999 51.2891C50.9483 51.2891 50.409 51.1255 49.9504 50.819C49.4917 50.5126 49.1342 50.077 48.9231 49.5673C48.712 49.0577 48.6568 48.4969 48.7644 47.9559C48.872 47.4149 49.1377 46.9179 49.5277 46.5278C49.9178 46.1378 50.4147 45.8721 50.9558 45.7645C51.4968 45.6569 52.0576 45.7121 52.5672 45.9232C53.0768 46.1343 53.5124 46.4918 53.8189 46.9505C54.1254 47.4091 54.2889 47.9484 54.2889 48.5C54.2889 49.2397 53.9951 49.9491 53.472 50.4722C52.949 50.9952 52.2396 51.2891 51.4999 51.2891Z" fill="#293142"/>
<path fill-rule="evenodd" clip-rule="evenodd" d="M58.9026 45.1991C60.4267 46.7232 61.1092 48.2367 61.1371 48.3007C61.1651 48.3637 61.1796 48.4319 61.1796 48.5008C61.1796 48.5698 61.1651 48.638 61.1371 48.701C61.1092 48.7666 60.4267 50.2776 58.9026 51.8018C57.4884 53.2143 55.0586 54.8984 51.5001 54.8984C47.9416 54.8984 45.5118 53.2143 44.0976 51.8018C42.5734 50.2776 41.8909 48.7642 41.863 48.701C41.835 48.638 41.8205 48.5698 41.8205 48.5008C41.8205 48.4319 41.835 48.3637 41.863 48.3007C41.8909 48.2342 42.5734 46.7232 44.0976 45.1991C45.5118 43.7865 47.9416 42.1016 51.5001 42.1016C55.0586 42.1016 57.4884 43.7865 58.9026 45.1991ZM41.5886 48.8222C41.5437 48.721 41.5205 48.6115 41.5205 48.5008C41.5205 48.3907 41.5435 48.2817 41.588 48.181C41.6405 48.0588 42.3438 46.5286 43.8854 44.9869L43.8856 44.9868C45.3362 43.5378 47.8379 41.8016 51.5001 41.8016C55.1623 41.8016 57.6639 43.5378 59.1146 44.9868L59.1147 44.9869C60.6668 46.539 61.3685 48.0813 61.4115 48.1795C61.4564 48.2806 61.4796 48.3901 61.4796 48.5008C61.4796 48.6112 61.4566 48.7202 61.412 48.8211C61.3625 48.9356 60.6597 50.4689 59.1147 52.0139L59.1146 52.014C57.6639 53.4631 55.1622 55.1985 51.5001 55.1985C47.8379 55.1985 45.3363 53.4631 43.8856 52.014L43.8854 52.0139C42.3255 50.454 41.6248 48.9042 41.5886 48.8222ZM44.8186 45.8701C44.0389 46.6444 43.3792 47.5308 42.8614 48.5C43.3794 49.4693 44.0391 50.356 44.8186 51.1308C46.6783 52.9773 48.9259 53.9141 51.5001 53.9141C56.9962 53.9141 59.6162 49.5016 60.1388 48.5C59.6209 47.5308 58.9612 46.6444 58.1815 45.8701C56.3219 44.0227 54.0742 43.0859 51.5001 43.0859C48.9259 43.0859 46.6783 44.0227 44.8186 45.8701ZM59.7979 48.5011C59.3061 47.6129 58.6908 46.7987 57.9701 46.083L57.9701 46.0829C56.1655 44.2902 53.9934 43.3859 51.5001 43.3859C49.0068 43.3859 46.8347 44.2902 45.0301 46.0829L45.03 46.083C44.3096 46.7984 43.6945 47.6123 43.2029 48.5C43.6946 49.388 44.3098 50.2021 45.0301 50.918C46.8347 52.7098 49.0068 53.6141 51.5001 53.6141C56.5937 53.6141 59.1423 49.6941 59.7979 48.5011ZM51.5001 44.4266H51.5005C52.5803 44.428 53.6155 44.8576 54.379 45.6211C55.1425 46.3846 55.5721 47.4198 55.5735 48.4996V48.5C55.5735 49.3057 55.3346 50.0932 54.887 50.7631C54.4394 51.433 53.8032 51.9551 53.0589 52.2634C52.3146 52.5717 51.4956 52.6524 50.7054 52.4952C49.9152 52.338 49.1894 51.95 48.6197 51.3804C48.05 50.8107 47.6621 50.0849 47.5049 49.2947C47.3477 48.5045 47.4284 47.6855 47.7367 46.9412C48.045 46.1969 48.5671 45.5607 49.237 45.1131C49.9069 44.6655 50.6944 44.4266 51.5001 44.4266ZM55.2735 48.5C55.2735 49.2463 55.0522 49.9759 54.6376 50.5964C54.2229 51.217 53.6336 51.7006 52.9441 51.9862C52.2546 52.2718 51.4959 52.3465 50.7639 52.2009C50.0319 52.0553 49.3596 51.696 48.8319 51.1682C48.3041 50.6405 47.9447 49.9681 47.7991 49.2362C47.6535 48.5042 47.7283 47.7455 48.0139 47.056C48.2995 46.3665 48.7831 45.7771 49.4037 45.3625C50.0242 44.9479 50.7538 44.7266 51.5001 44.7266C52.5005 44.7279 53.4595 45.1259 54.1669 45.8332C54.8742 46.5406 55.2722 47.4996 55.2735 48.5ZM50.1172 50.5696C50.5266 50.8431 51.0078 50.9891 51.5001 50.9891C52.1602 50.9891 52.7933 50.7268 53.2601 50.26C53.7269 49.7933 53.9891 49.1602 53.9891 48.5C53.9891 48.0077 53.8432 47.5265 53.5697 47.1172C53.2962 46.7078 52.9074 46.3888 52.4526 46.2004C51.9978 46.012 51.4973 45.9627 51.0145 46.0588C50.5317 46.1548 50.0881 46.3919 49.74 46.74C49.3919 47.0881 49.1549 47.5316 49.0588 48.0144C48.9628 48.4973 49.0121 48.9977 49.2005 49.4525C49.3889 49.9074 49.7079 50.2961 50.1172 50.5696ZM49.9506 50.819C50.4092 51.1255 50.9485 51.2891 51.5001 51.2891C52.2398 51.2891 52.9492 50.9952 53.4722 50.4722C53.9953 49.9491 54.2891 49.2397 54.2891 48.5C54.2891 47.9484 54.1256 47.4092 53.8191 46.9505C53.5126 46.4918 53.077 46.1344 52.5674 45.9233C52.0578 45.7122 51.497 45.6569 50.956 45.7645C50.4149 45.8722 49.918 46.1378 49.5279 46.5278C49.1379 46.9179 48.8722 47.4149 48.7646 47.9559C48.657 48.4969 48.7122 49.0577 48.9233 49.5673C49.1344 50.077 49.4919 50.5126 49.9506 50.819Z" fill="#293142"/>
</svg>
