<svg width="88" height="71" viewBox="0 0 88 71" fill="none" xmlns="http://www.w3.org/2000/svg">
<path d="M44 9.33423C48.4275 3.46957 55.5304 0 63.6429 0C70.1005 0.00723896 76.2916 2.56178 80.8579 7.10318C85.4242 11.6446 87.9927 17.802 88 24.2245C88 39.5462 79.0608 48.2647 67.5 57.5L66.3215 54.3919C65.888 53.2485 66.1952 51.9601 67.074 51.1099C74.9689 43.4725 81.7143 34.0672 81.7143 24.2245C81.7081 19.4596 79.8021 14.8917 76.4144 11.5225C73.0267 8.15325 68.4338 6.25768 63.6429 6.25147C56.0018 6.25147 49.5864 10.2876 46.9071 16.8008C46.6704 17.3741 46.2676 17.8645 45.7499 18.2096C45.2323 18.5546 44.6232 18.7389 44 18.7389C43.3768 18.7389 42.7677 18.5546 42.2501 18.2096C41.7324 17.8645 41.3296 17.3741 41.0929 16.8008C38.4136 10.2993 31.9982 6.25147 24.3571 6.25147C19.5662 6.25768 14.9733 8.15325 11.5856 11.5225C8.1979 14.8917 6.29195 19.4596 6.28571 24.2245C6.28571 34.1696 12.3554 43.6563 20.2617 51.327C20.967 52.0113 21.099 53.1015 20.5539 53.9192L18.5 57C7.50593 47.8209 0 38.6763 0 24.2245C0.00727861 17.802 2.57581 11.6446 7.14208 7.10318C11.7084 2.56178 17.8995 0.00723896 24.3571 0C32.4696 0 39.5725 3.46957 44 9.33423Z" fill="#293142"/>
<path fill-rule="evenodd" clip-rule="evenodd" d="M44 12.6536L42.4038 10.5393C38.382 5.21199 31.8901 2.00031 24.3582 2C18.4271 2.00695 12.7431 4.35342 8.55243 8.52125C4.36214 12.6887 2.00698 18.3367 2 24.2256C2.00036 37.0591 8.22386 45.482 18.0825 54.0206L18.8898 52.8098C18.8899 52.8097 18.8897 52.8099 18.8898 52.8098C18.8899 52.8086 18.8903 52.8058 18.8898 52.8019C18.8884 52.7898 18.8827 52.7757 18.8691 52.7624C10.8089 44.9425 4.28571 34.9674 4.28571 24.2245V24.2218C4.29265 18.924 6.41193 13.8473 10.1753 10.1044C13.9382 6.36196 19.0376 4.25836 24.3546 4.25148L24.3571 4.25147C32.7182 4.25147 39.9202 8.70796 42.9414 16.0373C43.0262 16.2426 43.1711 16.4199 43.3595 16.5455C43.548 16.6711 43.771 16.7389 44 16.7389C44.229 16.7389 44.452 16.6711 44.6405 16.5455C44.8285 16.4201 44.9732 16.2433 45.0581 16.0387C48.0796 8.69487 55.2836 4.25147 63.6429 4.25147H63.6454C68.9624 4.25836 74.0618 6.36196 77.8247 10.1044C81.5881 13.8472 83.7074 18.924 83.7143 24.2218V24.2245C83.7143 34.9299 76.4336 44.8383 68.4646 52.5474C68.1414 52.86 68.0504 53.3104 68.1916 53.6828L68.3903 54.2069C78.7798 45.6745 85.9992 37.6381 86 24.2267C85.9933 18.3374 83.6381 12.689 79.4476 8.52125C75.2569 4.35342 69.5729 2.00695 63.6418 2C56.1099 2.00031 49.618 5.21199 45.5962 10.5393L44 12.6536ZM63.6429 0C70.1005 0.00723896 76.2916 2.56178 80.8579 7.10318C85.4242 11.6446 87.9927 17.802 88 24.2245C88 38.8143 79.8944 47.4167 69.1382 56.1792C68.5985 56.6188 68.0523 57.0588 67.5 57.5L66.3215 54.3919C65.888 53.2485 66.1952 51.9601 67.074 51.1099C74.9689 43.4725 81.7143 34.0672 81.7143 24.2245C81.7081 19.4596 79.8021 14.8917 76.4144 11.5225C73.0267 8.15325 68.4338 6.25768 63.6429 6.25147C56.0018 6.25147 49.5864 10.2876 46.9071 16.8008C46.6704 17.3741 46.2676 17.8645 45.7499 18.2096C45.2323 18.5546 44.6232 18.7389 44 18.7389C43.3768 18.7389 42.7677 18.5546 42.2501 18.2096C41.7324 17.8645 41.3296 17.3741 41.0929 16.8008C38.4136 10.2993 31.9982 6.25147 24.3571 6.25147C19.5662 6.25768 14.9733 8.15325 11.5856 11.5225C8.1979 14.8917 6.29195 19.4596 6.28571 24.2245C6.28571 34.1696 12.3554 43.6563 20.2617 51.327C20.967 52.0113 21.099 53.1015 20.5539 53.9192L18.5 57C17.9802 56.566 17.4682 56.1321 16.9645 55.6978C6.81297 46.9444 0 37.993 0 24.2245C0.00727861 17.802 2.57581 11.6446 7.14208 7.10318C11.7084 2.56178 17.8995 0.00723896 24.3571 0C31.7124 0 38.2377 2.85208 42.6916 7.75544C43.1501 8.26026 43.5867 8.78681 44 9.33423C44.4133 8.78681 44.8499 8.26026 45.3084 7.75544C49.7623 2.85208 56.2876 0 63.6429 0Z" fill="#EDF9FD"/>
<path d="M57.1681 30.7162C56.3032 30.715 55.4491 30.9093 54.6687 31.2848V29.877C54.6692 28.4768 54.1733 27.1225 53.2702 26.058C52.3672 24.9936 51.1164 24.2891 49.7434 24.0714C48.3703 23.8538 46.9652 24.1373 45.7812 24.8709C44.5973 25.6045 43.7124 26.7399 43.286 28.0726C42.3979 27.5873 41.3999 27.3428 40.3897 27.363C39.3796 27.3832 38.392 27.6674 37.5237 28.1878C36.6554 28.7081 35.9362 29.4468 35.4365 30.3314C34.9369 31.216 34.674 32.2162 34.6735 33.2339V46.6619L33.8779 45.3757C33.1051 44.0323 31.8357 43.0517 30.3473 42.6482C28.8589 42.2448 27.2724 42.4513 25.9347 43.2227C24.597 43.994 23.6168 45.2675 23.2084 46.7647C22.8 48.2619 22.9967 49.8611 23.7553 51.2127C27.0879 58.298 29.781 63.323 32.8615 66.4639C35.9732 69.6446 39.5057 71 44.6711 71C49.5305 70.9944 54.1894 69.0474 57.6255 65.5861C61.0616 62.1247 62.9945 57.4317 63 52.5366V36.5909C63 35.0329 62.3856 33.5386 61.2919 32.4369C60.1982 31.3352 58.7148 30.7162 57.1681 30.7162ZM59.6675 52.5366C59.6631 56.5417 58.0817 60.3815 55.2703 63.2135C52.4589 66.0456 48.647 67.6386 44.6711 67.643C40.4263 67.643 37.6916 66.6191 35.2296 64.1077C32.4741 61.2941 29.9372 56.523 26.738 49.7209C26.7192 49.6793 26.6984 49.6387 26.6755 49.5992C26.344 49.0208 26.2543 48.3334 26.4259 47.6883C26.5976 47.0432 27.0167 46.4933 27.5909 46.1594C28.1651 45.8255 28.8475 45.7351 29.4879 45.908C30.1283 46.081 30.6742 46.5031 31.0057 47.0815C31.0142 47.0983 31.0239 47.1144 31.0348 47.1298L34.9235 53.4241C35.1145 53.7346 35.4009 53.9738 35.7391 54.1055C36.0774 54.2372 36.449 54.2542 36.7977 54.1538C37.1464 54.0534 37.453 53.8412 37.6711 53.5493C37.8892 53.2574 38.0068 52.9019 38.0061 52.5366V33.2339C38.0061 32.5662 38.2694 31.9258 38.7381 31.4536C39.2068 30.9815 39.8426 30.7162 40.5055 30.7162C41.1683 30.7162 41.8041 30.9815 42.2728 31.4536C42.7415 31.9258 43.0048 32.5662 43.0048 33.2339V45.8226C43.0048 46.2678 43.1804 46.6947 43.4929 47.0095C43.8054 47.3243 44.2292 47.5011 44.6711 47.5011C45.113 47.5011 45.5369 47.3243 45.8493 47.0095C46.1618 46.6947 46.3374 46.2678 46.3374 45.8226V29.877C46.3374 29.2092 46.6007 28.5688 47.0694 28.0967C47.5382 27.6245 48.1739 27.3592 48.8368 27.3592C49.4996 27.3592 50.1354 27.6245 50.6041 28.0967C51.0728 28.5688 51.3362 29.2092 51.3362 29.877V45.8226C51.3362 46.2678 51.5117 46.6947 51.8242 47.0095C52.1367 47.3243 52.5605 47.5011 53.0024 47.5011C53.4443 47.5011 53.8682 47.3243 54.1806 47.0095C54.4931 46.6947 54.6687 46.2678 54.6687 45.8226V36.5909C54.6687 35.9232 54.932 35.2828 55.4007 34.8106C55.8695 34.3385 56.5052 34.0732 57.1681 34.0732C57.831 34.0732 58.4667 34.3385 58.9354 34.8106C59.4041 35.2828 59.6675 35.9232 59.6675 36.5909V52.5366Z" fill="#293142"/>
<path fill-rule="evenodd" clip-rule="evenodd" d="M57.1671 31.4162C56.4078 31.4151 55.6577 31.5857 54.9722 31.9156L53.9687 32.3984V29.877C53.9692 28.6422 53.5318 27.4483 52.7364 26.5109C51.9412 25.5736 50.8407 24.9541 49.6338 24.7628C48.4268 24.5715 47.1914 24.8206 46.1499 25.4659C45.1083 26.1113 44.3286 27.1111 43.9527 28.2859L43.6944 29.0934L42.9504 28.6869C42.1692 28.26 41.2917 28.0451 40.4037 28.0629C39.5158 28.0806 38.6474 28.3304 37.8835 28.7882C37.1196 29.246 36.4863 29.8962 36.046 30.6757C35.6058 31.455 35.374 32.3366 35.3735 33.2339C35.3735 33.234 35.3735 33.2338 35.3735 33.2339V49.124L33.2767 45.7345L33.2711 45.7248C32.5902 44.5411 31.4727 43.6785 30.1642 43.3238C28.8557 42.9692 27.461 43.1506 26.2843 43.8291C25.1075 44.5077 24.2438 45.6289 23.8837 46.9489C23.5237 48.269 23.6972 49.679 24.3658 50.8701L24.3781 50.892L24.3888 50.9148C27.728 58.0144 30.3765 62.9305 33.3612 65.9737C36.3196 68.9977 39.6605 70.2999 44.6703 70.3C49.3427 70.2947 53.8233 68.4226 57.1287 65.0929C60.4344 61.763 62.2947 57.2472 62.3 52.5358V36.5909C62.3 35.2169 61.7581 33.9001 60.7951 32.93C59.8323 31.9601 58.5265 31.4162 57.1671 31.4162ZM63 52.5366C62.9945 57.4317 61.0616 62.1247 57.6255 65.5861C54.1894 69.0474 49.5305 70.9944 44.6711 71C39.5057 71 35.9732 69.6446 32.8615 66.4639C29.781 63.323 27.0879 58.298 23.7553 51.2127C22.9967 49.8611 22.8 48.2619 23.2084 46.7647C23.6168 45.2675 24.597 43.994 25.9347 43.2227C27.2724 42.4513 28.8589 42.2448 30.3473 42.6482C31.8357 43.0517 33.1051 44.0323 33.8779 45.3757L34.6735 46.6619V33.2339C34.674 32.2162 34.9369 31.216 35.4365 30.3314C35.9362 29.4468 36.6554 28.7081 37.5237 28.1878C38.392 27.6674 39.3796 27.3832 40.3897 27.363C41.1642 27.3475 41.9316 27.4877 42.6477 27.7726C42.8656 27.8593 43.0788 27.9594 43.286 28.0726C43.3581 27.8474 43.4432 27.6278 43.5407 27.4148C44.0201 26.3676 44.7974 25.4805 45.7812 24.8709C46.9652 24.1373 48.3703 23.8538 49.7434 24.0714C51.1164 24.2891 52.3672 24.9936 53.2702 26.058C54.1733 27.1225 54.6692 28.4768 54.6687 29.877V31.2848C54.8963 31.1753 55.1301 31.0812 55.3687 31.0029C55.9482 30.8126 56.5554 30.7153 57.1681 30.7162C58.7148 30.7162 60.1982 31.3352 61.2919 32.4369C62.3856 33.5386 63 35.0329 63 36.5909V52.5366ZM60.3675 52.5374C60.3629 56.7262 58.709 60.7432 55.7671 63.7067C52.825 66.6704 48.8349 68.3384 44.6719 68.343C40.2808 68.343 37.3499 67.2706 34.7298 64.5977C31.8772 61.6851 29.2943 56.801 26.1045 50.0189L26.0996 50.0085C26.0907 49.9886 26.0808 49.9692 26.0699 49.9504L26.0681 49.9473C25.6448 49.2085 25.5305 48.3314 25.7495 47.5083C25.9686 46.6851 26.5037 45.9818 27.239 45.5542C27.9745 45.1266 28.8493 45.0105 29.6703 45.2322C30.4913 45.4539 31.1897 45.9946 31.613 46.7335L31.6172 46.7408L31.6181 46.742L35.5197 53.0573C35.6312 53.2385 35.7976 53.3771 35.9931 53.4532C36.1884 53.5293 36.4028 53.539 36.604 53.4811C36.8053 53.4232 36.9833 53.3004 37.1103 53.1303C37.2375 52.9602 37.3065 52.7522 37.3061 52.538L37.3061 52.5366L37.3061 33.2339C37.3061 32.3822 37.6419 31.5643 38.2413 30.9605C38.8409 30.3565 39.6553 30.0162 40.5055 30.0162C41.3556 30.0162 42.17 30.3565 42.7696 30.9605C43.369 31.5643 43.7048 32.3822 43.7048 33.2339V45.8226C43.7048 46.0838 43.8079 46.3332 43.9897 46.5163C44.1713 46.6993 44.4165 46.8011 44.6711 46.8011C44.9257 46.8011 45.1709 46.6993 45.3526 46.5163C45.5343 46.3332 45.6374 46.0838 45.6374 45.8226V29.877C45.6374 29.0252 45.9732 28.2073 46.5726 27.6035C47.1723 26.9995 47.9866 26.6592 48.8368 26.6592C49.687 26.6592 50.5013 26.9995 51.1009 27.6035C51.7003 28.2073 52.0362 29.0252 52.0362 29.877V45.8226C52.0362 46.0838 52.1392 46.3332 52.321 46.5163C52.5026 46.6993 52.7478 46.8011 53.0024 46.8011C53.257 46.8011 53.5023 46.6993 53.6839 46.5163C53.8657 46.3332 53.9687 46.0838 53.9687 45.8226V36.5909C53.9687 35.7392 54.3045 34.9213 54.904 34.3175C55.5036 33.7135 56.3179 33.3732 57.1681 33.3732C58.0183 33.3732 58.8326 33.7135 59.4322 34.3175C60.0316 34.9213 60.3675 35.7392 60.3675 36.5909V52.5374ZM59.6675 52.5366C59.6631 56.5417 58.0817 60.3815 55.2703 63.2135C52.4589 66.0456 48.647 67.6386 44.6711 67.643C40.4263 67.643 37.6916 66.6191 35.2296 64.1077C32.4741 61.2941 29.9372 56.523 26.738 49.7209C26.7192 49.6793 26.6984 49.6387 26.6755 49.5992C26.344 49.0208 26.2543 48.3334 26.4259 47.6883C26.5976 47.0432 27.0167 46.4933 27.5909 46.1594C28.1651 45.8255 28.8475 45.7351 29.4879 45.908C30.1283 46.081 30.6742 46.5031 31.0057 47.0815C31.0142 47.0983 31.0239 47.1144 31.0348 47.1298L34.9235 53.4241C35.1145 53.7346 35.4009 53.9738 35.7391 54.1055C36.0774 54.2372 36.449 54.2542 36.7977 54.1538C37.1464 54.0534 37.453 53.8412 37.6711 53.5493C37.8892 53.2574 38.0068 52.9019 38.0061 52.5366V33.2339C38.0061 32.5662 38.2694 31.9258 38.7381 31.4536C39.2068 30.9815 39.8426 30.7162 40.5055 30.7162C41.1683 30.7162 41.8041 30.9815 42.2728 31.4536C42.7415 31.9258 43.0048 32.5662 43.0048 33.2339V45.8226C43.0048 46.2678 43.1804 46.6947 43.4929 47.0095C43.8054 47.3243 44.2292 47.5011 44.6711 47.5011C45.113 47.5011 45.5369 47.3243 45.8493 47.0095C46.1618 46.6947 46.3374 46.2678 46.3374 45.8226V29.877C46.3374 29.2092 46.6007 28.5688 47.0694 28.0967C47.5382 27.6245 48.1739 27.3592 48.8368 27.3592C49.4996 27.3592 50.1354 27.6245 50.6041 28.0967C51.0728 28.5688 51.3362 29.2092 51.3362 29.877V45.8226C51.3362 46.2678 51.5117 46.6947 51.8242 47.0095C52.1367 47.3243 52.5605 47.5011 53.0024 47.5011C53.4443 47.5011 53.8682 47.3243 54.1806 47.0095C54.4931 46.6947 54.6687 46.2678 54.6687 45.8226V36.5909C54.6687 35.9232 54.932 35.2828 55.4007 34.8106C55.8695 34.3385 56.5052 34.0732 57.1681 34.0732C57.831 34.0732 58.4667 34.3385 58.9354 34.8106C59.4041 35.2828 59.6675 35.9232 59.6675 36.5909V52.5366Z" fill="#EDF9FD"/>
</svg>
