<svg width="18" height="20" viewBox="0 0 18 20" fill="none" xmlns="http://www.w3.org/2000/svg">
<path d="M8.99993 0.9375C4.03658 0.9375 0 4.97408 0 9.93743C0 11.9322 0.638439 13.8151 1.84765 15.3951L0.432491 19.2316C0.379533 19.3757 0.426607 19.5287 0.526639 19.6494C0.679629 19.8318 0.897345 19.7523 0.944419 19.7317L5.13988 18.0636C6.36086 18.6461 7.65833 18.9403 8.99993 18.9403C13.9633 18.9403 17.9999 14.9037 17.9999 9.94038C17.9999 4.97408 13.9633 0.9375 8.99993 0.9375ZM8.99993 18.1548C7.72306 18.1548 6.49031 17.8606 5.33111 17.2839C5.23108 17.2339 5.1134 17.228 5.01042 17.2692L1.474 18.6785L2.65967 15.4627C2.70675 15.3333 2.68321 15.1891 2.59789 15.0803C1.40927 13.6063 0.782603 11.8263 0.782603 9.93743C0.782603 5.40657 4.46907 1.72304 8.99993 1.72304C13.5308 1.72304 17.2173 5.40952 17.2173 9.94038C17.2173 14.4683 13.5308 18.1548 8.99993 18.1548Z" fill="#293142"/>
<path d="M13.1891 12.2119C13.1657 12.1035 13.1105 12.0058 13.0297 11.925L12.0648 10.9601C11.9182 10.8135 11.7014 10.7539 11.5016 10.8049C11.2572 10.8666 10.8045 11.0387 10.5154 11.5042C10.4623 11.5892 10.4198 11.687 10.3858 11.8039C10.3475 11.9335 10.2923 12.0143 10.2583 12.0313C10.2455 12.0376 10.2221 12.0355 10.2094 12.0334C10.2009 12.0291 9.43152 11.6763 8.30297 10.5478C7.18504 9.42986 6.82586 8.66261 6.82586 8.66261C6.81523 8.63073 6.81311 8.60735 6.81948 8.5946C6.83861 8.55847 6.91725 8.50321 7.04902 8.46708C7.16379 8.43307 7.26155 8.39056 7.34657 8.33956C7.81202 8.05051 7.98629 7.59781 8.04793 7.3534C8.09894 7.15362 8.03943 6.93683 7.89278 6.79019L6.92787 5.82528C6.84711 5.74452 6.74722 5.68926 6.63883 5.66588C6.06924 5.54474 5.55916 6.0782 5.5209 6.1207C4.53687 7.00697 4.71115 8.15253 4.7324 8.27367C4.97256 9.93781 5.93534 11.094 6.84711 12.0058C7.75888 12.9175 8.91719 13.8824 10.5707 14.1184C10.5877 14.1205 10.7174 14.146 10.9193 14.146C11.3507 14.146 12.1009 14.0333 12.7152 13.3511C12.7768 13.2937 13.3103 12.7836 13.1891 12.2119Z" fill="#293142"/>
</svg>
