<svg width="61" height="62" viewBox="0 0 61 62" fill="none" xmlns="http://www.w3.org/2000/svg">
<g clip-path="url(#clip0_46_1320)">
<path d="M1.30173 30.6289C1.3003 35.8381 2.64993 40.9245 5.21622 45.4078L1.0563 60.7256L16.5999 56.6153C20.899 58.9757 25.7159 60.2125 30.6108 60.2128H30.6237C46.7827 60.2128 59.9366 46.9517 59.9435 30.6522C59.9466 22.754 56.8994 15.3269 51.3632 9.73925C45.8279 4.15204 38.4662 1.07343 30.6225 1.06982C14.4615 1.06982 1.30864 14.3301 1.30197 30.6289" fill="url(#paint0_linear_46_1320)"/>
<path d="M0.254961 30.6193C0.253293 36.016 1.65129 41.2843 4.30908 45.9281L0 61.795L16.1009 57.5374C20.5372 59.9768 25.5321 61.263 30.6146 61.2649H30.6277C47.3665 61.2649 60.9929 47.5268 61 30.6439C61.0029 22.4618 57.8461 14.7678 52.1121 8.97991C46.3774 3.19276 38.7524 0.00336434 30.6277 0C13.8861 0 0.261633 13.7361 0.254961 30.6193ZM9.8434 45.1283L9.24221 44.1659C6.715 40.1133 5.38111 35.4301 5.38301 30.6213C5.38849 16.5884 16.7126 5.17147 30.6373 5.17147C37.3806 5.17436 43.7179 7.82546 48.4845 12.6355C53.2509 17.446 55.8736 23.8407 55.8719 30.6419C55.8658 44.6748 44.5414 56.0932 30.6277 56.0932H30.6177C26.0873 56.0908 21.644 54.8638 17.7691 52.545L16.847 51.9935L7.29236 54.5199L9.8434 45.1281V45.1283Z" fill="url(#paint1_linear_46_1320)"/>
<path d="M23.0366 17.8185C22.468 16.5441 21.8697 16.5184 21.329 16.4961C20.8863 16.4769 20.3802 16.4783 19.8746 16.4783C19.3685 16.4783 18.5462 16.6703 17.8511 17.4357C17.1553 18.2018 15.1947 20.0531 15.1947 23.8186C15.1947 27.5842 17.9142 31.2232 18.2933 31.7344C18.6729 32.2446 23.5434 40.219 31.257 43.2868C37.6678 45.8363 38.9723 45.3292 40.3637 45.2014C41.7552 45.074 44.8538 43.3505 45.486 41.5633C46.1186 39.7764 46.1186 38.2446 45.929 37.9245C45.7393 37.6056 45.2332 37.4141 44.4743 37.0315C43.7151 36.6487 39.9841 34.7971 39.2885 34.5417C38.5928 34.2865 38.0869 34.1591 37.5808 34.9255C37.0747 35.6906 35.6214 37.4141 35.1784 37.9245C34.7359 38.4361 34.293 38.4998 33.5343 38.117C32.7749 37.733 30.3308 36.9258 27.4312 34.3187C25.1751 32.29 23.652 29.7847 23.2093 29.0184C22.7666 28.2533 23.1619 27.8385 23.5424 27.4571C23.8834 27.1142 24.3016 26.5634 24.6814 26.1167C25.0598 25.6697 25.1861 25.3508 25.4392 24.8404C25.6925 24.3295 25.5657 23.8825 25.3763 23.4997C25.1861 23.1169 23.7114 19.3317 23.0366 17.8185Z" fill="white"/>
</g>
<defs>
<linearGradient id="paint0_linear_46_1320" x1="2945.41" y1="5966.65" x2="2945.41" y2="1.06982" gradientUnits="userSpaceOnUse">
<stop stop-color="#1FAF38"/>
<stop offset="1" stop-color="#60D669"/>
</linearGradient>
<linearGradient id="paint1_linear_46_1320" x1="3050" y1="6179.5" x2="3050" y2="0" gradientUnits="userSpaceOnUse">
<stop stop-color="#F9F9F9"/>
<stop offset="1" stop-color="white"/>
</linearGradient>
<clipPath id="clip0_46_1320">
<rect width="61" height="62" fill="white"/>
</clipPath>
</defs>
</svg>
