<svg width="16" height="17" viewBox="0 0 16 17" fill="none" xmlns="http://www.w3.org/2000/svg">
<path d="M7.64765 0.996582C3.43007 0.996582 0 4.42665 0 8.64423C0 10.3393 0.54251 11.9393 1.57003 13.2818L0.367507 16.5419C0.322506 16.6644 0.362507 16.7944 0.447509 16.8969C0.577511 17.0519 0.762515 16.9844 0.802516 16.9669L4.36758 15.5494C5.40511 16.0444 6.50763 16.2944 7.64765 16.2944C11.8652 16.2944 15.2953 12.8643 15.2953 8.64673C15.2953 4.42665 11.8652 0.996582 7.64765 0.996582ZM7.64765 15.6269C6.56263 15.6269 5.51511 15.3769 4.53009 14.8869C4.44509 14.8443 4.34508 14.8393 4.25758 14.8743L1.25252 16.0719L2.26004 13.3393C2.30004 13.2293 2.28004 13.1068 2.20754 13.0143C1.19752 11.7618 0.665013 10.2493 0.665013 8.64423C0.665013 4.79416 3.79757 1.66409 7.64765 1.66409C11.4977 1.66409 14.6303 4.79666 14.6303 8.64673C14.6303 12.4943 11.4977 15.6269 7.64765 15.6269Z" fill="#25D366"/>
<path d="M11.2074 10.577C11.1875 10.4849 11.1406 10.4018 11.072 10.3332L10.252 9.51324C10.1274 9.38863 9.94321 9.33806 9.77345 9.3814C9.56576 9.43378 9.18108 9.58006 8.93546 9.97557C8.89031 10.0478 8.85419 10.1309 8.8253 10.2302C8.79279 10.3404 8.74583 10.409 8.71694 10.4235C8.7061 10.4289 8.68624 10.4271 8.6754 10.4253C8.66818 10.4217 8.01441 10.1219 7.05542 9.16288C6.10547 8.21293 5.80026 7.56096 5.80026 7.56096C5.79123 7.53387 5.78942 7.514 5.79484 7.50317C5.81109 7.47247 5.87791 7.42551 5.98988 7.39481C6.08741 7.36591 6.17048 7.32979 6.24272 7.28645C6.63824 7.04083 6.78633 6.65615 6.8387 6.44847C6.88205 6.2787 6.83148 6.09449 6.70687 5.96988L5.88694 5.14996C5.81832 5.08133 5.73343 5.03437 5.64133 5.01451C5.15732 4.91156 4.72388 5.36487 4.69137 5.40099C3.8552 6.15409 4.00329 7.12752 4.02135 7.23046C4.22543 8.64455 5.04354 9.62702 5.81832 10.4018C6.59309 11.1766 7.57735 11.9965 8.98242 12.1969C8.99687 12.1988 9.10703 12.2204 9.2786 12.2204C9.64522 12.2204 10.2827 12.1247 10.8047 11.545C10.857 11.4962 11.3103 11.0628 11.2074 10.577Z" fill="#25D366"/>
</svg>
